<?xml version="1.0" encoding="UTF-8" standalone="no"?>
<!-- Created with Inkscape (http://www.inkscape.org/) -->
<svg xmlns:dc="http://purl.org/dc/elements/1.1/" xmlns:cc="http://web.resource.org/cc/" xmlns:rdf="http://www.w3.org/1999/02/22-rdf-syntax-ns#" xmlns:svg="http://www.w3.org/2000/svg" xmlns="http://www.w3.org/2000/svg" xmlns:xlink="http://www.w3.org/1999/xlink" xmlns:sodipodi="http://sodipodi.sourceforge.net/DTD/sodipodi-0.dtd" xmlns:inkscape="http://www.inkscape.org/namespaces/inkscape" id="svg2" sodipodi:version="0.32" inkscape:version="0.45" width="753" height="383" version="1.0" sodipodi:docbase="/home/till/Desktop" sodipodi:docname="Nuclear_thermal_rocket_en.svg" inkscape:output_extension="org.inkscape.output.svg.inkscape" sodipodi:modified="true">
  <metadata id="metadata7">
    <rdf:RDF>
      <cc:Work rdf:about="">
        <dc:format>image/svg+xml</dc:format>
        <dc:type rdf:resource="http://purl.org/dc/dcmitype/StillImage"/>
      </cc:Work>
    </rdf:RDF>
  </metadata>
  <defs id="defs5">
    <linearGradient id="linearGradient11617">
      <stop style="stop-color: rgb(3, 239, 255); stop-opacity: 1;" offset="0" id="stop11619"/>
      <stop id="stop11625" offset="0.36178303" style="stop-color: rgb(255, 254, 23); stop-opacity: 1;"/>
      <stop style="stop-color: rgb(255, 254, 3); stop-opacity: 1;" offset="0.73217994" id="stop13565"/>
      <stop style="stop-color: rgb(240, 0, 0); stop-opacity: 1;" offset="1" id="stop11621"/>
    </linearGradient>
    <linearGradient inkscape:collect="always" xlink:href="#linearGradient11617" id="linearGradient11623" x1="104.64568" y1="127.87565" x2="157.68759" y2="162.58286" gradientUnits="userSpaceOnUse"/>
  </defs>
  <sodipodi:namedview inkscape:window-height="973" inkscape:window-width="1278" inkscape:pageshadow="2" inkscape:pageopacity="0.0" guidetolerance="10.0" gridtolerance="10.0" objecttolerance="10.0" borderopacity="1.0" bordercolor="#666666" pagecolor="#ffffff" id="base" showgrid="true" inkscape:grid-points="true" inkscape:zoom="1.7484851" inkscape:cx="360.97266" inkscape:cy="185.25" inkscape:window-x="0" inkscape:window-y="25" inkscape:current-layer="svg2"/>
  <path style="fill: rgb(90, 90, 171);" d="M 297.25,351.25045 C 315.8125,351.09807 346.1875,351.09807 364.75,351.25045 C 383.3125,351.40283 368.125,351.52751 331,351.52751 C 293.875,351.52751 278.6875,351.40283 297.25,351.25045 z " id="path3448"/>
  <path style="fill: rgb(240, 4, 4); stroke: rgb(0, 0, 0); stroke-opacity: 1; stroke-width: 0.5; stroke-miterlimit: 4; stroke-dasharray: none;" d="M 21.5,266.5 C 21.5,266.5 27.050849,266.79556 39.5,266.8125 C 50.011786,266.82681 68.932154,265.02262 75,263 C 83.932154,260.02262 107.76945,254.30918 119.75,247.375 C 124.92268,244.38112 125.16014,244.47829 128.0625,251.71875 C 140.19357,281.98182 169.77324,314.86137 202,331.28125 C 225,343 270,353 295,353 C 315,353 327.67382,352.92509 365,353 C 420,353 425,348 425,298 L 425,218 L 430,218 L 430,173 L 405,173 L 405,218 L 410,218 L 410,298 C 410,333 405,338 365,338 C 289.21111,338.00449 249.94503,336.21901 220,324 C 187.87827,310.89277 151.82356,273.21391 140,243 C 137.11269,235.62177 137.38533,236.70371 142.625,231.3125 C 145.17123,228.69261 148.31227,224.87375 149.59375,222.84375 C 153.0266,217.40576 155,218 155,218 C 162.86885,254.69117 190.17216,290.38529 228.53125,305.3125 C 262.21211,318.41921 303.86466,313.43811 334.5,292.65625 C 342.33287,287.34272 358,272.22125 358,269.96875 L 366.8125,259.25 C 379.07492,241.1546 384.28124,222.47993 384.28125,196.5 C 384.28125,169.76567 379.19934,152.10939 365.8125,132.25 C 342.893,98.248942 304.45097,79.783724 265.34375,80.625 C 247.56774,81.007398 229.64879,85.396111 213,94.09375 C 189.20231,109.01766 170.76632,128.25668 159.0625,154 C 158.40572,154.56113 156.68669,165.84218 155,173 C 155,173 151.90858,174.28953 150.125,170.375 C 143.79553,156.48333 119.68302,141.42094 92.53125,134.375 C 64.201328,127.02332 61.770686,126.63681 41,126.5625 L 21.5,126.5" id="path2167" sodipodi:nodetypes="cssssssccccccccccsssscssccssccccsscc"/>
  <path style="fill: rgb(35, 11, 29);" d="M 210,156.7626 L 210,141.1626 L 330,141.1626 L 330,156.7626 L 210,156.7626 z " id="path3719" sodipodi:nodetypes="ccccc"/>
  <path style="fill: rgb(35, 11, 29);" d="M 196,36 L 188,29 L 196,22 L 196,26 L 221,26 L 221,32 L 196,32 L 196,36 z " id="path2163" sodipodi:nodetypes="cccccccc"/>
  <text xml:space="preserve" style="font-size: 12px; font-style: normal; font-weight: normal; fill: rgb(0, 0, 0); fill-opacity: 1; stroke: none; stroke-width: 1px; stroke-linecap: butt; stroke-linejoin: miter; stroke-opacity: 1; font-family: Bitstream Vera Sans;" x="510" y="63" id="text3683"><tspan sodipodi:role="line" x="510" y="63" id="tspan3687" style="">Turbine pump</tspan></text>
  <text xml:space="preserve" style="font-size: 12px; font-style: normal; font-weight: normal; fill: rgb(0, 0, 0); fill-opacity: 1; stroke: none; stroke-width: 1px; stroke-linecap: butt; stroke-linejoin: miter; stroke-opacity: 1; font-family: Bitstream Vera Sans;" x="477.252" y="352.604" id="text3691"><tspan sodipodi:role="line" id="tspan3693" x="477.252" y="352.604" style="font-size: 28px;">Nuclear reactor</tspan></text>
  <text xml:space="preserve" style="font-size: 12px; font-style: normal; font-weight: normal; fill: rgb(0, 0, 0); fill-opacity: 1; stroke: none; stroke-width: 1px; stroke-linecap: butt; stroke-linejoin: miter; stroke-opacity: 1; font-family: Bitstream Vera Sans;" x="77.252" y="367.604" id="text3695"><tspan sodipodi:role="line" id="tspan3697" x="77.252" y="367.604" style="font-size: 28px;">Nozzle</tspan></text>
  <path sodipodi:nodetypes="cccccccc" id="path3767" d="M 378,37 L 370,30 L 378,23 L 378,27 L 403,27 L 403,33 L 378,33 L 378,37 z " style="fill: rgb(35, 11, 29);"/>
  <path style="fill: rgb(35, 11, 29);" d="M 416,108 L 423,100 L 430,108 L 426,108 L 426,133 L 420,133 L 420,108 L 416,108 z " id="path3771" sodipodi:nodetypes="cccccccc"/>
  <path sodipodi:nodetypes="cccccccc" id="path3791" d="M 431,271 L 438,263 L 445,271 L 441,271 L 441,296 L 435,296 L 435,271 L 431,271 z " style="fill: rgb(35, 11, 29);"/>
  <path style="fill: rgb(35, 11, 29);" d="M 325,373 L 333,366 L 325,359 L 325,363 L 300,363 L 300,369 L 325,369 L 325,373 z " id="path3793" sodipodi:nodetypes="cccccccc"/>
  <path sodipodi:nodetypes="cccccccc" id="path3795" d="M 66,100 L 73,108 L 80,100 L 76,100 L 76,75 L 70,75 L 70,100 L 66,100 z " style="fill: rgb(35, 11, 29);"/>
  <path sodipodi:nodetypes="cccccccc" id="path3797" d="M 58,167 L 50,160 L 58,153 L 58,157 L 83,157 L 83,163 L 58,163 L 58,167 z " style="fill: rgb(35, 11, 29); opacity: 0.69;"/>
  <path style="fill: rgb(35, 11, 29); opacity: 0.688103;" d="M 58,193 L 50,186 L 58,179 L 58,183 L 83,183 L 83,189 L 58,189 L 58,193 z " id="path3799" sodipodi:nodetypes="cccccccc"/>
  <path sodipodi:nodetypes="cccccccc" id="path3801" d="M 58,217 L 50,210 L 58,203 L 58,207 L 83,207 L 83,213 L 58,213 L 58,217 z " style="fill: rgb(35, 11, 29); opacity: 0.688103;"/>
  <path style="fill: rgb(35, 11, 29); opacity: 0.688103;" d="M 58,243 L 50,236 L 58,229 L 58,233 L 83,233 L 83,239 L 58,239 L 58,243 z " id="path3803" sodipodi:nodetypes="cccccccc"/>
  <path sodipodi:nodetypes="cccccccc" id="path3807" d="M 145,193 L 137,186 L 145,179 L 145,183 L 170,183 L 170,189 L 145,189 L 145,193 z " style="fill: rgb(35, 11, 29); opacity: 0.688103;"/>
  <path style="fill: rgb(35, 11, 29); opacity: 0.688103;" d="M 145,213 L 137,206 L 145,199 L 145,203 L 170,203 L 170,209 L 145,209 L 145,213 z " id="path3809" sodipodi:nodetypes="cccccccc"/>
  <path sodipodi:nodetypes="cccccccc" id="path3811" d="M 265,279.7626 L 257,272.7626 L 265,265.7626 L 265,269.7626 L 290,269.7626 L 290,275.7626 L 265,275.7626 L 265,279.7626 z " style="fill: rgb(35, 11, 29); opacity: 0.69;"/>
  <path style="fill: rgb(35, 11, 29); opacity: 0.688103;" d="M 258,124.7626 L 250,117.7626 L 258,110.7626 L 258,114.7626 L 283,114.7626 L 283,120.7626 L 258,120.7626 L 258,124.7626 z " id="path3813" sodipodi:nodetypes="cccccccc"/>
  <path sodipodi:nodetypes="cccccccc" id="path3815" d="M 275,103 L 283,96 L 275,89 L 275,93 L 250,93 L 250,99 L 275,99 L 275,103 z " style="fill: rgb(35, 11, 29); opacity: 0.688103;"/>
  <path sodipodi:nodetypes="ccccc" id="path3823" d="M 210,135.9626 L 210,130.7626 L 330,130.7626 L 330,135.9626 L 210,135.9626 z " style="fill: rgb(35, 11, 29);"/>
  <path style="fill: rgb(35, 11, 29);" d="M 210,167.1626 L 210,161.9626 L 330,161.9626 L 330,167.1626 L 210,167.1626 z " id="path3825" sodipodi:nodetypes="ccccc"/>
  <path sodipodi:nodetypes="ccccc" id="path3827" d="M 210,187.9626 L 210,172.3626 L 330,172.3626 L 330,187.9626 L 210,187.9626 z " style="fill: rgb(35, 11, 29);"/>
  <path sodipodi:nodetypes="ccccc" id="path3831" d="M 210,198.3626 L 210,193.1626 L 330,193.1626 L 330,198.3626 L 210,198.3626 z " style="fill: rgb(35, 11, 29);"/>
  <path style="fill: rgb(35, 11, 29);" d="M 210,219.1626 L 210,203.5626 L 330,203.5626 L 330,219.1626 L 210,219.1626 z " id="path3833" sodipodi:nodetypes="ccccc"/>
  <path style="fill: rgb(35, 11, 29);" d="M 210,229.5626 L 210,224.3626 L 330,224.3626 L 330,229.5626 L 210,229.5626 z " id="path3837" sodipodi:nodetypes="ccccc"/>
  <path sodipodi:nodetypes="ccccc" id="path3839" d="M 210,250.3626 L 210,234.7626 L 330,234.7626 L 330,250.3626 L 210,250.3626 z " style="fill: rgb(35, 11, 29);"/>
  <path sodipodi:nodetypes="ccccc" id="path3843" d="M 210,260.7626 L 210,255.5626 L 330,255.5626 L 330,260.7626 L 210,260.7626 z " style="fill: rgb(35, 11, 29);"/>
  <path style="fill: none; fill-opacity: 0.75; fill-rule: evenodd; stroke: rgb(0, 0, 0); stroke-width: 1px; stroke-linecap: butt; stroke-linejoin: miter; stroke-opacity: 1;" d="M 695.5,357.5 L 450.5,357.5 L 345.5,257.5" id="path7728" sodipodi:nodetypes="ccc"/>
  <path style="fill: none; fill-opacity: 0.75; fill-rule: evenodd; stroke: rgb(0, 0, 0); stroke-width: 1px; stroke-linecap: butt; stroke-linejoin: miter; stroke-opacity: 1;" d="M 75,263 L 25,373 L 170,373" id="path7731"/>
  <path style="fill: none; fill-opacity: 0.75; fill-rule: evenodd; stroke: rgb(0, 0, 0); stroke-width: 0.5; stroke-linecap: butt; stroke-linejoin: miter; stroke-opacity: 1; stroke-miterlimit: 4; stroke-dasharray: none;" d="M 155,173 L 180,173 C 185,153 200,123 230,108 L 310,108" id="path8702" sodipodi:nodetypes="cccc"/>
  <path sodipodi:nodetypes="cccc" id="path10644" d="M 155,218 L 180,218 C 185,238 200,268 230,283 L 310,283" style="fill: none; fill-opacity: 0.75; fill-rule: evenodd; stroke: rgb(0, 0, 0); stroke-width: 0.5; stroke-linecap: butt; stroke-linejoin: miter; stroke-miterlimit: 4; stroke-dasharray: none; stroke-opacity: 1;"/>
  <path id="path2171" d="M 155.51558,172.89688 C 135.51558,147.89688 130.77712,141.02927 100,133 L 110,123 C 138.4828,131.60323 144.73446,132.86723 159.73446,152.86723" style="fill: url(#linearGradient11623) rgb(0, 0, 0); stroke: rgb(0, 0, 0); stroke-opacity: 1; stroke-width: 0.5; stroke-miterlimit: 4; stroke-dasharray: none; fill-opacity: 1; stroke-linejoin: round; stroke-linecap: round;" sodipodi:nodetypes="cccc"/>
  <path style="fill: rgb(6, 240, 242); stroke: rgb(0, 0, 0); stroke-opacity: 1; stroke-width: 0.5; stroke-miterlimit: 4; stroke-dasharray: none; stroke-linejoin: round; stroke-linecap: round;" d="M 110.71875,123.21875 C 100,118 100,103 100,88 C 100,63 119.37953,58 155,58 C 175,58 405,58 420,58 C 435,58 435,73 435,88 L 435,173 L 430,173 L 430,218 L 455,218 L 455,208 L 479.125,208 C 485.22984,253.0015 523.83294,287.71876 570.5,287.71875 C 621.40509,287.71875 662.71875,246.40511 662.71875,195.5 C 662.71875,144.5949 621.40509,103.28125 570.5,103.28125 C 523.83295,103.28125 485.22985,137.9985 479.125,183 L 455,183 L 455,173 L 450,173 L 450,88 C 450,53 445,43 420,43 C 416.70624,43 336.37149,42.979385 255,43 C 218.38283,43.009277 186.05878,42.833225 167.96875,42.875 C 161.93874,42.888925 157.50293,42.92058 155,43 C 122.5,44.03125 85,48 85,88 C 85,108 85,128 100.67179,133.09375" id="path2173" sodipodi:nodetypes="cssscccccccssscccccsscssc"/>
  <path style="fill: rgb(97, 97, 97); fill-opacity: 1; fill-rule: evenodd; stroke: rgb(0, 0, 0); stroke-width: 0.3; stroke-linecap: butt; stroke-linejoin: miter; stroke-opacity: 1; stroke-miterlimit: 4; stroke-dasharray: none;" d="M 410,178 L 410,213 L 425,213 L 425,203 L 435,203 L 435,213 L 450,213 L 450,178 L 435,178 L 435,188 L 425,188 L 425,178 L 410,178 z " id="path6753"/>
  <path style="fill: none; fill-opacity: 0.75; fill-rule: evenodd; stroke: rgb(0, 0, 0); stroke-width: 1px; stroke-linecap: butt; stroke-linejoin: miter; stroke-opacity: 1;" d="M 445,188 L 510,68 L 700,68" id="path7724" sodipodi:nodetypes="ccc"/>
  <text xml:space="preserve" style="font-size: 12px; font-style: normal; font-weight: normal; fill: rgb(0, 0, 0); fill-opacity: 1; stroke: none; stroke-width: 1px; stroke-linecap: butt; stroke-linejoin: miter; stroke-opacity: 1; font-family: Bitstream Vera Sans;" x="572.934" y="184.273" id="text3699"><tspan sodipodi:role="line" id="tspan3701" x="572.934" y="184.273" style="font-size: 28px; text-align: center; text-anchor: middle;">Liquid</tspan><tspan sodipodi:role="line" x="572.934" y="219.273" id="tspan3703" style="font-size: 28px; text-align: center; text-anchor: middle;">hydrogen</tspan></text>
</svg>