<?xml version="1.0" encoding="utf-8"?>
<!-- Generator: Adobe Illustrator 13.0.2, SVG Export Plug-In . SVG Version: 6.00 Build 14948)  -->
<!DOCTYPE svg PUBLIC "-//W3C//DTD SVG 1.1//EN" "http://www.w3.org/Graphics/SVG/1.1/DTD/svg11.dtd">
<svg version="1.1" xmlns="http://www.w3.org/2000/svg" xmlns:xlink="http://www.w3.org/1999/xlink" x="0px" y="0px" width="872px"
	 height="577px" viewBox="0 0 872 577" enable-background="new 0 0 872 577" xml:space="preserve">
<g id="Shading">
	<g>
		<defs>
			<rect id="SVGID_1_" x="23.317" y="112.158" width="833.545" height="363.666"/>
		</defs>
		<clipPath id="SVGID_2_">
			<use xlink:href="#SVGID_1_"  overflow="visible"/>
		</clipPath>
		<g clip-path="url(#SVGID_2_)">
			<linearGradient id="SVGID_3_" gradientUnits="userSpaceOnUse" x1="-8.9868" y1="291.1055" x2="890.3203" y2="291.1055">
				<stop  offset="0" style="stop-color:#C4FFFF"/>
				<stop  offset="0.064" style="stop-color:#C6FDFD"/>
				<stop  offset="0.099" style="stop-color:#CCF5F5"/>
				<stop  offset="0.1269" style="stop-color:#D6E7E7"/>
				<stop  offset="0.1511" style="stop-color:#E4D4D4"/>
				<stop  offset="0.1538" style="stop-color:#E6D1D1"/>
			</linearGradient>
			<path fill="url(#SVGID_3_)" d="M890.32,465.803c-34.588-13.438-864.718-13.438-899.307,0c34.589-13.438,34.589-335.958,0-349.396
				c34.589,13.438,864.719,13.438,899.307,0C855.732,129.845,855.732,452.365,890.32,465.803z"/>
			<linearGradient id="SVGID_4_" gradientUnits="userSpaceOnUse" x1="124.9121" y1="292.5469" x2="859.1729" y2="292.5469">
				<stop  offset="0" style="stop-color:#BAFFFF"/>
				<stop  offset="0.3132" style="stop-color:#E6FFA6"/>
				<stop  offset="0.4176" style="stop-color:#E6FF1C"/>
				<stop  offset="0.478" style="stop-color:#E63B63"/>
				<stop  offset="0.989" style="stop-color:#E6C9BF"/>
			</linearGradient>
			<path fill="url(#SVGID_4_)" d="M124.912,387.502l94.668-25.397l105.06-15.007c0,0,108.523,2.307,204.346,63.496
				c63.498,5.773,151.24-33.481,157.012-34.636c5.772-1.153,143.158,5.774,173.175,13.854v-194.53
				c-30.017,8.081-167.402,15.008-173.175,13.854c-5.771-1.154-93.514-40.408-157.012-34.635
				c-95.823,61.189-204.346,63.497-204.346,63.497l-105.06-15.008l-94.668-25.399V387.502z"/>
		</g>
	</g>
</g>
<g id="Parts">
	<g id="High_Pressure_Shaft">
		<rect x="225.93" y="272.056" fill="#7E217B" stroke="#000000" stroke-width="1.8136" width="225.127" height="39.252"/>
		<rect x="225.93" y="277.251" fill="#7E217B" stroke="#000000" stroke-width="1.5552" width="225.127" height="28.862"/>
	</g>
	<polygon id="Low_Pressure_Shaft" fill="#6C8940" stroke="#000000" stroke-width="1.7317" points="128.086,257.336 145.693,262.82 
		153.198,248.389 162.433,248.389 187.833,248.389 197.646,283.601 472.415,283.601 479.921,263.974 490.312,263.974 
		500.701,258.202 512.245,258.202 524.946,253.584 535.336,253.584 536.49,332.667 522.636,332.667 511.669,328.05 499.547,328.05 
		490.312,321.699 479.342,321.699 472.126,300.919 196.491,300.919 187.833,334.398 151.466,334.398 143.384,321.699 
		127.798,325.163 	"/>
	<path id="Cowling_Top" fill="#CCCCCC" stroke="#000000" stroke-width="1.7317" d="M147.713,132.073
		c22.455,1.604,66.672,1.732,37.232-7.792c-29.44-9.525-57.147-8.659-84.855-2.598S99.224,128.61,147.713,132.073z"/>
	<path id="Cowling_Bottom" fill="#CCCCCC" stroke="#000000" stroke-width="1.7317" d="M147.713,450.438
		c22.455-1.604,66.672-1.731,37.232,7.793c-29.44,9.524-57.147,8.659-84.855,2.598S99.224,453.902,147.713,450.438z"/>
	<path id="Rear_Cone" fill="#CCCCCC" stroke="#000000" stroke-width="1.7317" d="M555.712,249.348c0,0,60.225,8.603,103.239,43.017
		c-43.016,34.412-103.239,43.017-103.239,43.017V249.348z"/>
	<path id="Front_Cone" fill="#CCCCCC" stroke="#000000" stroke-width="1.7317" d="M104.795,249.348c0,0-94.178,31.944-94.178,43.017
		c0,12.595,94.178,43.017,94.178,43.017V249.348z"/>
	<path id="Top_Wall" fill="#CCCCCC" stroke="#000000" stroke-width="1.7317" d="M141.652,194.849l-3.463,4.33l87.886,27.275
		l99.142,16.019l112.563-19.049c0,0,58.446-15.153,90.917-45.891c38.964-5.195,144.167,24.677,159.753,33.769l1.731-5.195
		c0,0-97.41-42.428-162.351-36.367c-54.117,40.263-87.886,45.025-89.185,45.025s-112.563,19.482-112.563,19.482l-99.575-15.152
		L141.652,194.849z"/>
	<path id="Bottom_Wall" fill="#CCCCCC" stroke="#000000" stroke-width="1.7317" d="M141.652,389.944l-3.463-4.329l87.886-27.275
		l99.142-16.019L437.78,361.37c0,0,58.446,15.153,90.917,45.892c38.964,5.195,144.167-24.678,159.753-33.769l1.731,5.194
		c0,0-97.41,42.429-162.351,36.367c-54.117-40.263-87.886-45.025-89.185-45.025s-112.563-19.482-112.563-19.482L226.508,365.7
		L141.652,389.944z"/>
</g>
<g id="Fans">
	<g>
		<g>
			<polygon fill="#B6C4A0" stroke="#000000" stroke-width="1.7317" points="128.375,184.315 105.863,184.315 104.131,135.249 
				131.262,139.866 			"/>
			<polygon fill="#A3B588" stroke="#000000" stroke-width="1.7317" points="128.375,216.352 107.017,220.682 104.13,182.583 
				131.839,179.696 			"/>
			<polygon fill="#91A770" stroke="#000000" stroke-width="1.5517" points="128.375,246.067 107.017,249.543 104.13,218.958 
				131.839,216.64 			"/>
			<polygon fill="#7E9858" stroke="#000000" stroke-width="1.4112" points="127.798,267.881 107.595,276.097 103.553,245.457 
				131.262,243.54 			"/>
			<polygon fill="#6C8940" stroke="#000000" stroke-width="1.2351" points="127.798,285.39 107.595,291.683 103.553,268.214 
				131.262,266.746 			"/>
		</g>
		<g>
			<polygon fill="#2E3B1B" stroke="#000000" stroke-width="1.7317" points="107.017,396.164 129.529,396.164 131.261,445.231 
				104.13,440.615 			"/>
			<polygon fill="#3E4E25" stroke="#000000" stroke-width="1.7317" points="107.017,364.127 128.375,359.798 131.262,397.896 
				103.553,400.785 			"/>
			<polygon fill="#4D622E" stroke="#000000" stroke-width="1.5517" points="107.017,334.413 128.375,330.937 131.262,361.522 
				103.553,363.84 			"/>
			<polygon fill="#5D7537" stroke="#000000" stroke-width="1.4112" points="107.594,312.6 127.797,304.382 131.839,335.022 
				104.13,336.94 			"/>
			<polygon fill="#6C8940" stroke="#000000" stroke-width="1.2351" points="107.594,295.091 127.797,288.796 131.839,312.267 
				104.13,313.734 			"/>
		</g>
		<polygon fill="#1F2712" stroke="#000000" stroke-width="1.7317" points="107.595,291.683 127.798,285.39 129.53,290.528 
			106.439,296.878 		"/>
	</g>
	<g>
		<g>
			<polygon fill="#B6C4A0" stroke="#000000" stroke-width="1.2093" points="537.978,216.27 553.699,216.27 554.908,182.006 
				535.964,185.23 			"/>
			<polygon fill="#A3B588" stroke="#000000" stroke-width="1.2093" points="537.978,238.643 552.894,241.666 554.91,215.06 
				535.56,213.044 			"/>
			<polygon fill="#91A770" stroke="#000000" stroke-width="1.0836" points="537.978,259.393 552.894,261.821 554.91,240.461 
				535.56,238.843 			"/>
			<polygon fill="#7E9858" stroke="#000000" stroke-width="0.9855" points="538.382,274.626 552.49,280.364 555.313,258.967 
				535.964,257.628 			"/>
			<polygon fill="#6C8940" stroke="#000000" stroke-width="0.8625" points="538.382,286.853 552.49,291.248 555.313,274.858 
				535.964,273.834 			"/>
		</g>
		<g>
			<polygon fill="#2E3B1B" stroke="#000000" stroke-width="1.2093" points="552.894,364.21 537.173,364.21 535.964,398.475 
				554.91,395.251 			"/>
			<polygon fill="#3E4E25" stroke="#000000" stroke-width="1.2093" points="552.894,341.838 537.979,338.813 535.964,365.419 
				555.313,367.437 			"/>
			<polygon fill="#4D622E" stroke="#000000" stroke-width="1.0836" points="552.894,321.087 537.979,318.659 535.964,340.018 
				555.313,341.637 			"/>
			<polygon fill="#5D7537" stroke="#000000" stroke-width="0.9855" points="552.491,305.854 538.382,300.115 535.56,321.514 
				554.91,322.852 			"/>
			<polygon fill="#6C8940" stroke="#000000" stroke-width="0.8625" points="552.491,293.628 538.382,289.232 535.56,305.621 
				554.91,306.646 			"/>
		</g>
		<polygon fill="#1F2712" stroke="#000000" stroke-width="1.2093" points="552.49,291.248 538.382,286.853 537.173,290.441 
			553.298,294.876 		"/>
	</g>
	<g>
		<g>
			<polygon fill="#B6C4A0" stroke="#000000" stroke-width="1.0743" points="511.968,224.528 525.936,224.528 527.009,194.089 
				510.179,196.955 			"/>
			<polygon fill="#A3B588" stroke="#000000" stroke-width="1.0743" points="511.968,244.403 525.22,247.088 527.011,223.453 
				509.82,221.663 			"/>
			<polygon fill="#91A770" stroke="#000000" stroke-width="0.9626" points="511.968,262.837 525.22,264.993 527.011,246.019 
				509.82,244.581 			"/>
			<polygon fill="#7E9858" stroke="#000000" stroke-width="0.8755" points="512.328,276.37 524.859,281.467 527.368,262.458 
				510.179,261.27 			"/>
			<polygon fill="#6C8940" stroke="#000000" stroke-width="0.7662" points="512.328,287.231 524.859,291.135 527.368,276.576 
				510.179,275.665 			"/>
		</g>
		<g>
			<polygon fill="#2E3B1B" stroke="#000000" stroke-width="1.0743" points="525.22,355.952 511.254,355.952 510.179,386.392 
				527.011,383.528 			"/>
			<polygon fill="#3E4E25" stroke="#000000" stroke-width="1.0743" points="525.22,336.078 511.97,333.391 510.179,357.026 
				527.368,358.818 			"/>
			<polygon fill="#4D622E" stroke="#000000" stroke-width="0.9626" points="525.22,317.644 511.97,315.486 510.179,334.461 
				527.368,335.898 			"/>
			<polygon fill="#5D7537" stroke="#000000" stroke-width="0.8755" points="524.861,304.109 512.328,299.013 509.82,318.021 
				527.011,319.21 			"/>
			<polygon fill="#6C8940" stroke="#000000" stroke-width="0.7662" points="524.861,293.249 512.328,289.344 509.82,303.905 
				527.011,304.814 			"/>
		</g>
		<polygon fill="#1F2712" stroke="#000000" stroke-width="1.0743" points="524.859,291.135 512.328,287.231 511.254,290.42 
			525.578,294.358 		"/>
	</g>
	<g>
		<g>
			<polygon fill="#B6C4A0" stroke="#000000" stroke-width="0.9586" points="489.822,232.197 502.411,232.197 503.379,205.31 
				488.209,207.841 			"/>
			<polygon fill="#A3B588" stroke="#000000" stroke-width="0.9586" points="489.822,249.752 501.766,252.124 503.38,231.248 
				487.886,229.666 			"/>
			<polygon fill="#91A770" stroke="#000000" stroke-width="0.8589" points="489.822,266.035 501.766,267.94 503.38,251.179 
				487.886,249.91 			"/>
			<polygon fill="#7E9858" stroke="#000000" stroke-width="0.7811" points="490.147,277.988 501.44,282.491 503.701,265.7 
				488.209,264.65 			"/>
			<polygon fill="#6C8940" stroke="#000000" stroke-width="0.6836" points="490.147,287.582 501.44,291.03 503.701,278.171 
				488.209,277.366 			"/>
		</g>
		<g>
			<polygon fill="#2E3B1B" stroke="#000000" stroke-width="0.9586" points="501.766,348.283 489.178,348.283 488.209,375.17 
				503.38,372.641 			"/>
			<polygon fill="#3E4E25" stroke="#000000" stroke-width="0.9586" points="501.766,330.729 489.824,328.354 488.209,349.233 
				503.701,350.816 			"/>
			<polygon fill="#4D622E" stroke="#000000" stroke-width="0.8589" points="501.766,314.446 489.824,312.54 488.209,329.3 
				503.701,330.571 			"/>
			<polygon fill="#5D7537" stroke="#000000" stroke-width="0.7811" points="501.442,302.491 490.147,297.989 487.886,314.779 
				503.38,315.828 			"/>
			<polygon fill="#6C8940" stroke="#000000" stroke-width="0.6836" points="501.442,292.897 490.147,289.449 487.886,302.311 
				503.38,303.113 			"/>
		</g>
		<polygon fill="#1F2712" stroke="#000000" stroke-width="0.9586" points="501.44,291.03 490.147,287.582 489.178,290.399 
			502.088,293.878 		"/>
	</g>
	<g>
		<g>
			<polygon fill="#B6C4A0" stroke="#000000" stroke-width="0.8413" points="470.638,239.298 481.687,239.298 482.535,215.7 
				469.223,217.922 			"/>
			<polygon fill="#A3B588" stroke="#000000" stroke-width="0.8413" points="470.638,254.706 481.119,256.787 482.537,238.465 
				468.938,237.077 			"/>
			<polygon fill="#91A770" stroke="#000000" stroke-width="0.7538" points="470.638,268.996 481.119,270.668 482.537,255.958 
				468.938,254.844 			"/>
			<polygon fill="#7E9858" stroke="#000000" stroke-width="0.6856" points="470.924,279.487 480.834,283.438 482.819,268.703 
				469.223,267.78 			"/>
			<polygon fill="#6C8940" stroke="#000000" stroke-width="0.6" points="470.924,287.908 480.834,290.934 482.819,279.647 
				469.223,278.941 			"/>
		</g>
		<g>
			<polygon fill="#2E3B1B" stroke="#000000" stroke-width="0.8413" points="481.119,341.182 470.073,341.182 469.223,364.78 
				482.537,362.56 			"/>
			<polygon fill="#3E4E25" stroke="#000000" stroke-width="0.8413" points="481.119,325.775 470.64,323.691 469.223,342.016 
				482.819,343.405 			"/>
			<polygon fill="#4D622E" stroke="#000000" stroke-width="0.7538" points="481.119,311.484 470.64,309.813 469.223,324.521 
				482.819,325.637 			"/>
			<polygon fill="#5D7537" stroke="#000000" stroke-width="0.6856" points="480.836,300.993 470.924,297.041 468.938,311.777 
				482.537,312.697 			"/>
			<polygon fill="#6C8940" stroke="#000000" stroke-width="0.6" points="480.836,292.572 470.924,289.545 468.938,300.834 
				482.537,301.539 			"/>
		</g>
		<polygon fill="#1F2712" stroke="#000000" stroke-width="0.8413" points="480.834,290.934 470.924,287.908 470.073,290.379 
			481.403,293.434 		"/>
	</g>
	<g>
		<g>
			<polygon fill="#B6C4A0" stroke="#000000" stroke-width="0.9223" points="151.958,233.826 139.968,233.826 139.045,207.693 
				153.495,210.153 			"/>
			<polygon fill="#A3B588" stroke="#000000" stroke-width="0.9223" points="151.958,250.888 140.583,253.194 139.045,232.904 
				153.802,231.365 			"/>
			<polygon fill="#91A770" stroke="#000000" stroke-width="0.8264" points="151.958,266.715 140.583,268.566 139.045,252.276 
				153.802,251.042 			"/>
			<polygon fill="#7E9858" stroke="#000000" stroke-width="0.7516" points="151.649,278.332 140.89,282.708 138.737,266.389 
				153.495,265.368 			"/>
			<polygon fill="#6C8940" stroke="#000000" stroke-width="0.6578" points="151.649,287.656 140.89,291.008 138.737,278.509 
				153.495,277.728 			"/>
		</g>
		<g>
			<polygon fill="#2E3B1B" stroke="#000000" stroke-width="0.9223" points="140.582,346.654 152.572,346.654 153.495,372.786 
				139.045,370.327 			"/>
			<polygon fill="#3E4E25" stroke="#000000" stroke-width="0.9223" points="140.582,329.59 151.957,327.285 153.495,347.577 
				138.737,349.115 			"/>
			<polygon fill="#4D622E" stroke="#000000" stroke-width="0.8264" points="140.582,313.767 151.957,311.914 153.495,328.203 
				138.737,329.438 			"/>
			<polygon fill="#5D7537" stroke="#000000" stroke-width="0.7516" points="140.89,302.148 151.649,297.772 153.802,314.091 
				139.045,315.112 			"/>
			<polygon fill="#6C8940" stroke="#000000" stroke-width="0.6578" points="140.89,292.823 151.649,289.471 153.802,301.971 
				139.045,302.753 			"/>
		</g>
		<polygon fill="#1F2712" stroke="#000000" stroke-width="0.9223" points="140.89,291.008 151.649,287.656 152.572,290.395 
			140.274,293.776 		"/>
	</g>
	<g>
		<g>
			<polygon fill="#B6C4A0" stroke="#000000" stroke-width="0.8506" points="174.895,238.215 163.837,238.215 162.986,214.115 
				176.311,216.383 			"/>
			<polygon fill="#A3B588" stroke="#000000" stroke-width="0.8506" points="174.895,253.949 164.403,256.076 162.986,237.365 
				176.595,235.946 			"/>
			<polygon fill="#91A770" stroke="#000000" stroke-width="0.7621" points="174.895,268.545 164.403,270.252 162.986,255.229 
				176.595,254.091 			"/>
			<polygon fill="#7E9858" stroke="#000000" stroke-width="0.6931" points="174.609,279.258 164.688,283.294 162.702,268.245 
				176.311,267.303 			"/>
			<polygon fill="#6C8940" stroke="#000000" stroke-width="0.6066" points="174.609,287.857 164.688,290.949 162.702,279.421 
				176.311,278.701 			"/>
		</g>
		<g>
			<polygon fill="#2E3B1B" stroke="#000000" stroke-width="0.8506" points="164.402,342.266 175.46,342.266 176.311,366.364 
				162.986,364.097 			"/>
			<polygon fill="#3E4E25" stroke="#000000" stroke-width="0.8506" points="164.402,326.529 174.894,324.403 176.311,343.116 
				162.702,344.535 			"/>
			<polygon fill="#4D622E" stroke="#000000" stroke-width="0.7621" points="164.402,311.937 174.894,310.229 176.311,325.251 
				162.702,326.389 			"/>
			<polygon fill="#5D7537" stroke="#000000" stroke-width="0.6931" points="164.688,301.221 174.609,297.187 176.595,312.235 
				162.986,313.178 			"/>
			<polygon fill="#6C8940" stroke="#000000" stroke-width="0.6066" points="164.688,292.622 174.609,289.53 176.595,301.058 
				162.986,301.779 			"/>
		</g>
		<polygon fill="#1F2712" stroke="#000000" stroke-width="0.8506" points="164.688,290.949 174.609,287.857 175.46,290.383 
			164.12,293.501 		"/>
	</g>
	<g>
		<g>
			<polygon fill="#B6C4A0" stroke="#000000" stroke-width="0.7965" points="196.786,241.519 186.431,241.519 185.633,218.95 
				198.112,221.075 			"/>
			<polygon fill="#A3B588" stroke="#000000" stroke-width="0.7965" points="196.786,256.254 186.961,258.246 185.633,240.724 
				198.378,239.394 			"/>
			<polygon fill="#91A770" stroke="#000000" stroke-width="0.7137" points="196.786,269.923 186.961,271.521 185.633,257.453 
				198.378,256.387 			"/>
			<polygon fill="#7E9858" stroke="#000000" stroke-width="0.6491" points="196.518,279.956 187.227,283.735 185.368,269.642 
				198.112,268.759 			"/>
			<polygon fill="#6C8940" stroke="#000000" stroke-width="0.5681" points="196.518,288.009 187.227,290.903 185.368,280.109 
				198.112,279.434 			"/>
		</g>
		<g>
			<polygon fill="#2E3B1B" stroke="#000000" stroke-width="0.7965" points="186.96,338.961 197.315,338.961 198.112,361.529 
				185.633,359.405 			"/>
			<polygon fill="#3E4E25" stroke="#000000" stroke-width="0.7965" points="186.96,324.225 196.785,322.233 198.112,339.758 
				185.368,341.087 			"/>
			<polygon fill="#4D622E" stroke="#000000" stroke-width="0.7137" points="186.96,310.558 196.785,308.958 198.112,323.027 
				185.368,324.093 			"/>
			<polygon fill="#5D7537" stroke="#000000" stroke-width="0.6491" points="187.227,300.524 196.518,296.745 198.378,310.839 
				185.633,311.722 			"/>
			<polygon fill="#6C8940" stroke="#000000" stroke-width="0.5681" points="187.227,292.471 196.518,289.576 198.378,300.37 
				185.633,301.047 			"/>
		</g>
		<polygon fill="#1F2712" stroke="#000000" stroke-width="0.7965" points="187.227,290.903 196.518,288.009 197.315,290.374 
			186.695,293.295 		"/>
	</g>
	<g>
		<g>
			<polygon fill="#BF90BD" stroke="#000000" stroke-width="0.7174" points="233.039,250.551 223.229,250.551 222.473,231.231 
				234.297,233.05 			"/>
			<polygon fill="#AE74AD" stroke="#000000" stroke-width="0.7174" points="233.039,263.167 223.731,264.872 222.473,249.869 
				234.549,248.733 			"/>
			<polygon fill="#9E599C" stroke="#000000" stroke-width="0.6428" points="233.039,274.867 223.731,276.236 222.473,264.191 
				234.549,263.279 			"/>
			<polygon fill="#8E3D8C" stroke="#000000" stroke-width="0.5846" points="232.788,283.457 223.983,286.692 222.221,274.627 
				234.297,273.873 			"/>
			<polygon fill="#7E217B" stroke="#000000" stroke-width="0.5116" points="232.788,290.353 223.983,292.83 222.221,283.587 
				234.297,283.01 			"/>
		</g>
		<g>
			<polygon fill="#360E35" stroke="#000000" stroke-width="0.7174" points="223.73,333.971 233.541,333.971 234.297,353.29 
				222.473,351.474 			"/>
			<polygon fill="#481346" stroke="#000000" stroke-width="0.7174" points="223.73,321.356 233.038,319.651 234.297,334.652 
				222.221,335.79 			"/>
			<polygon fill="#5A1858" stroke="#000000" stroke-width="0.6428" points="223.73,309.655 233.038,308.285 234.297,320.328 
				222.221,321.241 			"/>
			<polygon fill="#6C1C69" stroke="#000000" stroke-width="0.5846" points="223.982,301.063 232.786,297.829 234.549,309.896 
				222.473,310.649 			"/>
			<polygon fill="#7E217B" stroke="#000000" stroke-width="0.5116" points="223.982,294.169 232.786,291.691 234.549,300.932 
				222.473,301.512 			"/>
		</g>
		<polygon fill="#360E35" stroke="#000000" stroke-width="0.7174" points="223.983,292.83 232.788,290.353 233.543,292.376 
			223.479,294.876 		"/>
	</g>
	<g>
		<g>
			<polygon fill="#BF90BD" stroke="#000000" stroke-width="0.7825" points="447.658,246.764 458.358,246.764 459.184,225.691 
				446.287,227.674 			"/>
			<polygon fill="#AE74AD" stroke="#000000" stroke-width="0.7825" points="447.658,260.525 457.811,262.385 459.184,246.021 
				446.01,244.782 			"/>
			<polygon fill="#9E599C" stroke="#000000" stroke-width="0.7011" points="447.658,273.289 457.811,274.782 459.184,261.644 
				446.01,260.648 			"/>
			<polygon fill="#8E3D8C" stroke="#000000" stroke-width="0.6377" points="447.933,282.657 457.535,286.187 459.458,273.026 
				446.287,272.204 			"/>
			<polygon fill="#7E217B" stroke="#000000" stroke-width="0.5581" points="447.933,290.18 457.535,292.882 459.458,282.8 
				446.287,282.17 			"/>
		</g>
		<g>
			<polygon fill="#360E35" stroke="#000000" stroke-width="0.7825" points="457.813,337.757 447.108,337.757 446.287,358.83 
				459.184,356.849 			"/>
			<polygon fill="#481346" stroke="#000000" stroke-width="0.7825" points="457.813,323.998 447.658,322.138 446.287,338.499 
				459.458,339.742 			"/>
			<polygon fill="#5A1858" stroke="#000000" stroke-width="0.7011" points="457.813,311.234 447.658,309.739 446.287,322.877 
				459.458,323.873 			"/>
			<polygon fill="#6C1C69" stroke="#000000" stroke-width="0.6377" points="457.536,301.86 447.934,298.334 446.01,311.497 
				459.184,312.318 			"/>
			<polygon fill="#7E217B" stroke="#000000" stroke-width="0.5581" points="457.536,294.342 447.934,291.639 446.01,301.719 
				459.184,302.353 			"/>
		</g>
		<polygon fill="#360E35" stroke="#000000" stroke-width="0.7825" points="457.535,292.882 447.933,290.18 447.108,292.387 
			458.084,295.112 		"/>
	</g>
	<g>
		<g>
			<polygon fill="#BF90BD" stroke="#000000" stroke-width="0.7471" points="427.389,248.822 437.606,248.822 438.395,228.701 
				426.08,230.595 			"/>
			<polygon fill="#AE74AD" stroke="#000000" stroke-width="0.7471" points="427.389,261.96 437.082,263.737 438.395,248.112 
				425.815,246.929 			"/>
			<polygon fill="#9E599C" stroke="#000000" stroke-width="0.6694" points="427.389,274.146 437.082,275.572 438.395,263.028 
				425.815,262.079 			"/>
			<polygon fill="#8E3D8C" stroke="#000000" stroke-width="0.6088" points="427.651,283.092 436.819,286.461 438.654,273.896 
				426.08,273.111 			"/>
			<polygon fill="#7E217B" stroke="#000000" stroke-width="0.5328" points="427.651,290.274 436.819,292.854 438.654,283.228 
				426.08,282.627 			"/>
		</g>
		<g>
			<polygon fill="#360E35" stroke="#000000" stroke-width="0.7471" points="437.084,335.699 426.865,335.699 426.08,355.82 
				438.395,353.928 			"/>
			<polygon fill="#481346" stroke="#000000" stroke-width="0.7471" points="437.084,322.562 427.389,320.786 426.08,336.409 
				438.654,337.595 			"/>
			<polygon fill="#5A1858" stroke="#000000" stroke-width="0.6694" points="437.084,310.377 427.389,308.95 426.08,321.491 
				438.654,322.443 			"/>
			<polygon fill="#6C1C69" stroke="#000000" stroke-width="0.6088" points="436.821,301.426 427.653,298.061 425.815,310.627 
				438.395,311.412 			"/>
			<polygon fill="#7E217B" stroke="#000000" stroke-width="0.5328" points="436.821,294.247 427.653,291.668 425.815,301.291 
				438.395,301.896 			"/>
		</g>
		<polygon fill="#360E35" stroke="#000000" stroke-width="0.7471" points="436.819,292.854 427.651,290.274 426.865,292.382 
			437.344,294.984 		"/>
	</g>
	<g>
		<g>
			<polygon fill="#BF90BD" stroke="#000000" stroke-width="0.6348" points="248.832,252.878 240.695,252.878 240.068,234.635 
				249.875,236.353 			"/>
			<polygon fill="#AE74AD" stroke="#000000" stroke-width="0.6348" points="248.832,264.79 241.112,266.399 240.068,252.233 
				250.084,251.161 			"/>
			<polygon fill="#9E599C" stroke="#000000" stroke-width="0.5688" points="248.832,275.837 241.112,277.13 240.068,265.758 
				250.084,264.896 			"/>
			<polygon fill="#8E3D8C" stroke="#000000" stroke-width="0.5173" points="248.623,283.948 241.321,287.003 239.859,275.61 
				249.875,274.898 			"/>
			<polygon fill="#7E217B" stroke="#000000" stroke-width="0.4528" points="248.623,290.459 241.321,292.798 239.859,284.071 
				249.875,283.526 			"/>
		</g>
		<g>
			<polygon fill="#360E35" stroke="#000000" stroke-width="0.6348" points="241.111,331.644 249.248,331.644 249.875,349.886 
				240.068,348.171 			"/>
			<polygon fill="#481346" stroke="#000000" stroke-width="0.6348" points="241.111,319.732 248.831,318.124 249.875,332.288 
				239.859,333.361 			"/>
			<polygon fill="#5A1858" stroke="#000000" stroke-width="0.5688" points="241.111,308.685 248.831,307.391 249.875,318.762 
				239.859,319.624 			"/>
			<polygon fill="#6C1C69" stroke="#000000" stroke-width="0.5173" points="241.32,300.572 248.622,297.518 250.084,308.911 
				240.068,309.623 			"/>
			<polygon fill="#7E217B" stroke="#000000" stroke-width="0.4528" points="241.32,294.063 248.622,291.724 250.084,300.448 
				240.068,300.996 			"/>
		</g>
		<polygon fill="#360E35" stroke="#000000" stroke-width="0.6348" points="241.321,292.798 248.623,290.459 249.25,292.37 
			240.903,294.73 		"/>
	</g>
	<g>
		<g>
			<polygon fill="#BF90BD" stroke="#000000" stroke-width="0.6199" points="265.419,254.393 257.353,254.393 256.73,236.853 
				266.455,238.504 			"/>
			<polygon fill="#AE74AD" stroke="#000000" stroke-width="0.6199" points="265.419,265.847 257.765,267.395 256.73,253.773 
				266.662,252.743 			"/>
			<polygon fill="#9E599C" stroke="#000000" stroke-width="0.5554" points="265.419,276.469 257.765,277.711 256.73,266.777 
				266.662,265.949 			"/>
			<polygon fill="#8E3D8C" stroke="#000000" stroke-width="0.5051" points="265.213,284.268 257.972,287.205 256.523,276.251 
				266.455,275.566 			"/>
			<polygon fill="#7E217B" stroke="#000000" stroke-width="0.4421" points="265.213,290.528 257.972,292.777 256.523,284.387 
				266.455,283.861 			"/>
		</g>
		<g>
			<polygon fill="#360E35" stroke="#000000" stroke-width="0.6199" points="257.765,330.128 265.832,330.128 266.455,347.669 
				256.73,346.02 			"/>
			<polygon fill="#481346" stroke="#000000" stroke-width="0.6199" points="257.765,318.676 265.419,317.13 266.455,330.747 
				256.523,331.78 			"/>
			<polygon fill="#5A1858" stroke="#000000" stroke-width="0.5554" points="257.765,308.052 265.419,306.809 266.455,317.742 
				256.523,318.57 			"/>
			<polygon fill="#6C1C69" stroke="#000000" stroke-width="0.5051" points="257.972,300.252 265.212,297.314 266.662,308.27 
				256.73,308.955 			"/>
			<polygon fill="#7E217B" stroke="#000000" stroke-width="0.4421" points="257.972,293.993 265.212,291.744 266.662,300.134 
				256.73,300.66 			"/>
		</g>
		<polygon fill="#360E35" stroke="#000000" stroke-width="0.6199" points="257.972,292.777 265.213,290.528 265.833,292.364 
			257.558,294.636 		"/>
	</g>
	<g>
		<g>
			<polygon fill="#BF90BD" stroke="#000000" stroke-width="0.6013" points="283.587,255.529 275.763,255.529 275.159,238.515 
				284.591,240.116 			"/>
			<polygon fill="#AE74AD" stroke="#000000" stroke-width="0.6013" points="283.587,266.639 276.163,268.141 275.159,254.928 
				284.792,253.928 			"/>
			<polygon fill="#9E599C" stroke="#000000" stroke-width="0.5387" points="283.587,276.942 276.163,278.148 275.159,267.542 
				284.792,266.738 			"/>
			<polygon fill="#8E3D8C" stroke="#000000" stroke-width="0.49" points="283.388,284.507 276.364,287.356 274.958,276.731 
				284.591,276.067 			"/>
			<polygon fill="#7E217B" stroke="#000000" stroke-width="0.4288" points="283.388,290.58 276.364,292.762 274.958,284.623 
				284.591,284.113 			"/>
		</g>
		<g>
			<polygon fill="#360E35" stroke="#000000" stroke-width="0.6013" points="276.163,328.991 283.988,328.991 284.591,346.007 
				275.159,344.406 			"/>
			<polygon fill="#481346" stroke="#000000" stroke-width="0.6013" points="276.163,317.883 283.587,316.384 284.591,329.592 
				274.958,330.595 			"/>
			<polygon fill="#5A1858" stroke="#000000" stroke-width="0.5387" points="276.163,307.578 283.587,306.372 284.591,316.978 
				274.958,317.781 			"/>
			<polygon fill="#6C1C69" stroke="#000000" stroke-width="0.49" points="276.363,300.012 283.387,297.162 284.792,307.79 
				275.159,308.454 			"/>
			<polygon fill="#7E217B" stroke="#000000" stroke-width="0.4288" points="276.363,293.94 283.387,291.759 284.792,299.897 
				275.159,300.408 			"/>
		</g>
		<polygon fill="#360E35" stroke="#000000" stroke-width="0.6013" points="276.364,292.762 283.388,290.58 283.99,292.361 
			275.962,294.564 		"/>
	</g>
	<g>
		<g>
			<polygon fill="#BF90BD" stroke="#000000" stroke-width="0.5512" points="300.454,258.587 293.279,258.587 292.726,242.988 
				301.374,244.457 			"/>
			<polygon fill="#AE74AD" stroke="#000000" stroke-width="0.5512" points="300.454,268.771 293.646,270.148 292.726,258.036 
				301.558,257.118 			"/>
			<polygon fill="#9E599C" stroke="#000000" stroke-width="0.4939" points="300.454,278.217 293.646,279.322 292.726,269.599 
				301.558,268.863 			"/>
			<polygon fill="#8E3D8C" stroke="#000000" stroke-width="0.4492" points="300.27,285.153 293.831,287.765 292.542,278.024 
				301.374,277.415 			"/>
			<polygon fill="#7E217B" stroke="#000000" stroke-width="0.3931" points="300.27,290.721 293.831,292.72 292.542,285.258 
				301.374,284.792 			"/>
		</g>
		<g>
			<polygon fill="#360E35" stroke="#000000" stroke-width="0.5512" points="293.646,325.934 300.82,325.934 301.374,341.533 
				292.726,340.067 			"/>
			<polygon fill="#481346" stroke="#000000" stroke-width="0.5512" points="293.646,315.75 300.454,314.377 301.374,326.485 
				292.542,327.403 			"/>
			<polygon fill="#5A1858" stroke="#000000" stroke-width="0.4939" points="293.646,306.303 300.454,305.197 301.374,314.921 
				292.542,315.657 			"/>
			<polygon fill="#6C1C69" stroke="#000000" stroke-width="0.4492" points="293.83,299.366 300.269,296.755 301.558,306.498 
				292.726,307.106 			"/>
			<polygon fill="#7E217B" stroke="#000000" stroke-width="0.3931" points="293.83,293.801 300.269,291.802 301.558,299.261 
				292.726,299.729 			"/>
		</g>
		<polygon fill="#360E35" stroke="#000000" stroke-width="0.5512" points="293.831,292.72 300.27,290.721 300.822,292.353 
			293.462,294.374 		"/>
	</g>
	<g>
		<g>
			<polygon fill="#BF90BD" stroke="#000000" stroke-width="0.5331" points="316.962,259.694 310.024,259.694 309.488,244.608 
				317.852,246.029 			"/>
			<polygon fill="#AE74AD" stroke="#000000" stroke-width="0.5331" points="316.962,269.543 310.379,270.875 309.488,259.161 
				318.03,258.274 			"/>
			<polygon fill="#9E599C" stroke="#000000" stroke-width="0.4777" points="316.962,278.679 310.379,279.748 309.488,270.344 
				318.03,269.632 			"/>
			<polygon fill="#8E3D8C" stroke="#000000" stroke-width="0.4344" points="316.785,285.386 310.557,287.913 309.311,278.493 
				317.852,277.903 			"/>
			<polygon fill="#7E217B" stroke="#000000" stroke-width="0.3802" points="316.785,290.771 310.557,292.704 309.311,285.488 
				317.852,285.037 			"/>
		</g>
		<g>
			<polygon fill="#360E35" stroke="#000000" stroke-width="0.5331" points="310.379,324.826 317.317,324.826 317.852,339.913 
				309.488,338.496 			"/>
			<polygon fill="#481346" stroke="#000000" stroke-width="0.5331" points="310.379,314.977 316.962,313.649 317.852,325.36 
				309.311,326.249 			"/>
			<polygon fill="#5A1858" stroke="#000000" stroke-width="0.4777" points="310.379,305.842 316.962,304.771 317.852,314.176 
				309.311,314.888 			"/>
			<polygon fill="#6C1C69" stroke="#000000" stroke-width="0.4344" points="310.556,299.133 316.784,296.607 318.03,306.029 
				309.488,306.617 			"/>
			<polygon fill="#7E217B" stroke="#000000" stroke-width="0.3802" points="310.556,293.75 316.784,291.816 318.03,299.031 
				309.488,299.484 			"/>
		</g>
		<polygon fill="#360E35" stroke="#000000" stroke-width="0.5331" points="310.557,292.704 316.785,290.771 317.318,292.35 
			310.201,294.305 		"/>
	</g>
	<g>
		<g>
			<polygon fill="#BF90BD" stroke="#000000" stroke-width="0.5331" points="334.567,259.694 327.629,259.694 327.093,244.608 
				335.457,246.029 			"/>
			<polygon fill="#AE74AD" stroke="#000000" stroke-width="0.5331" points="334.567,269.543 327.984,270.875 327.093,259.161 
				335.635,258.274 			"/>
			<polygon fill="#9E599C" stroke="#000000" stroke-width="0.4777" points="334.567,278.679 327.984,279.748 327.093,270.344 
				335.635,269.632 			"/>
			<polygon fill="#8E3D8C" stroke="#000000" stroke-width="0.4344" points="334.39,285.386 328.162,287.913 326.916,278.493 
				335.457,277.903 			"/>
			<polygon fill="#7E217B" stroke="#000000" stroke-width="0.3802" points="334.39,290.771 328.162,292.704 326.916,285.488 
				335.457,285.037 			"/>
		</g>
		<g>
			<polygon fill="#360E35" stroke="#000000" stroke-width="0.5331" points="327.984,324.826 334.922,324.826 335.457,339.913 
				327.093,338.496 			"/>
			<polygon fill="#481346" stroke="#000000" stroke-width="0.5331" points="327.984,314.977 334.567,313.649 335.457,325.36 
				326.916,326.249 			"/>
			<polygon fill="#5A1858" stroke="#000000" stroke-width="0.4777" points="327.984,305.842 334.567,304.771 335.457,314.176 
				326.916,314.888 			"/>
			<polygon fill="#6C1C69" stroke="#000000" stroke-width="0.4344" points="328.161,299.133 334.389,296.607 335.635,306.029 
				327.093,306.617 			"/>
			<polygon fill="#7E217B" stroke="#000000" stroke-width="0.3802" points="328.161,293.75 334.389,291.816 335.635,299.031 
				327.093,299.484 			"/>
		</g>
		<polygon fill="#360E35" stroke="#000000" stroke-width="0.5331" points="328.162,292.704 334.39,290.771 334.923,292.35 
			327.806,294.305 		"/>
	</g>
</g>
<g id="Arrows" opacity="0.3">
	<g>
		<g>
			<line fill="none" stroke="#000000" stroke-width="8.6587" x1="29.955" y1="144.196" x2="74.114" y2="150.257"/>
			<path d="M72.732,150.067c-3.09-4.074-3.829-11.402-3.293-16.337c4.01,7.276,9.611,13.914,16.893,18.204
				c-8.15,2.033-15.099,7.303-21.173,12.983C66.302,159.707,68.469,153.49,72.732,150.067z"/>
		</g>
	</g>
	<g>
		<g>
			<line fill="none" stroke="#000000" stroke-width="8.6587" x1="29.8" y1="183.801" x2="74.269" y2="186.848"/>
			<path d="M72.877,186.753c-3.36-3.854-4.595-11.116-4.396-16.076c4.495,6.987,10.534,13.229,18.091,17.015
				c-7.993,2.581-14.568,8.311-20.243,14.391C67.116,196.807,68.856,190.458,72.877,186.753z"/>
		</g>
	</g>
	<g>
		<g>
			<line fill="none" stroke="#000000" stroke-width="8.6587" x1="29.76" y1="233.928" x2="74.309" y2="235.431"/>
			<path d="M72.914,235.384c-3.492-3.736-4.978-10.95-4.95-15.914c4.734,6.827,10.986,12.855,18.669,16.377
				c-7.898,2.857-14.271,8.812-19.731,15.084C67.505,245.632,69.024,239.226,72.914,235.384z"/>
		</g>
	</g>
	<g>
		<g>
			<line fill="none" stroke="#000000" stroke-width="9.4899" x1="157.879" y1="154.135" x2="211.269" y2="154.549"/>
			<path d="M209.739,154.537c-3.932-3.994-5.765-11.856-5.877-17.295c5.381,7.345,12.403,13.771,20.921,17.411
				c-8.573,3.355-15.384,10.061-21.188,17.089C204.105,165.918,205.587,158.857,209.739,154.537z"/>
		</g>
	</g>
	<g>
		<g>
			<line fill="none" stroke="#000000" stroke-width="9.0812" x1="355.298" y1="255.442" x2="404.242" y2="256.33"/>
			<path d="M402.779,256.303c-3.723-3.86-5.399-11.402-5.452-16.607c5.077,7.082,11.731,13.301,19.847,16.868
				c-8.236,3.125-14.821,9.474-20.445,16.142C397.275,267.138,398.763,260.396,402.779,256.303z"/>
		</g>
	</g>
	<g>
		<g>
			<line fill="none" stroke="#000000" stroke-width="13.5834" x1="716.722" y1="158.109" x2="824.386" y2="142.095"/>
			<path d="M822.221,142.417c-6.444-4.776-10.779-15.487-12.143-23.154c9.237,9.194,20.591,16.727,33.443,19.986
				c-11.38,6.644-19.527,17.635-26.178,28.859C816.775,159.76,817.307,149.446,822.221,142.417z"/>
		</g>
	</g>
	<g>
		<g>
			<line fill="none" stroke="#000000" stroke-width="13.5834" x1="716.306" y1="189.973" x2="824.802" y2="181.233"/>
			<path d="M822.62,181.409c-6.109-5.198-9.714-16.177-10.559-23.918c8.599,9.794,19.419,18.073,32.023,22.189
				c-11.8,5.864-20.668,16.282-28.058,27.034C816.021,198.347,817.244,188.092,822.62,181.409z"/>
		</g>
	</g>
	<g>
		<g>
			<line fill="none" stroke="#000000" stroke-width="13.5834" x1="716.146" y1="234.58" x2="824.961" y2="231.873"/>
			<path d="M822.772,231.927c-5.812-5.529-8.801-16.691-9.215-24.467c8.042,10.256,18.387,19.123,30.743,23.932
				c-12.107,5.2-21.539,15.11-29.515,25.436C815.244,248.473,817.035,238.301,822.772,231.927z"/>
		</g>
	</g>
	<g>
		<g>
			<line fill="none" stroke="#000000" stroke-width="13.5834" x1="716.135" y1="291.296" x2="824.973" y2="292.914"/>
			<path d="M822.784,292.882c-5.587-5.756-8.131-17.028-8.235-24.814c7.627,10.567,17.612,19.838,29.768,25.135
				c-12.305,4.715-22.123,14.242-30.502,24.243C814.604,309.115,816.797,299.022,822.784,292.882z"/>
		</g>
	</g>
	<g>
		<g>
			<line fill="none" stroke="#000000" stroke-width="12.3274" x1="579.52" y1="227.52" x2="665.766" y2="252.227"/>
			<path d="M663.856,251.68c-3.531-6.366-3.09-16.844-1.336-23.69c4.179,11.065,10.729,21.552,20.123,29.072
				c-11.896,1.215-22.755,7.236-32.466,14.012C652.844,263.963,657.156,255.641,663.856,251.68z"/>
		</g>
	</g>
</g>
<g id="Labels">
	<g>
		<g>
			<line fill="none" stroke="#000000" stroke-width="2" x1="87.968" y1="62.515" x2="114.521" y2="166.42"/>
			<polygon points="111.552,164.388 114.44,166.101 116.153,163.212 116.651,165.164 114.938,168.052 112.051,166.339 			"/>
		</g>
	</g>
	<g>
		<g>
			<line fill="none" stroke="#000000" stroke-width="2" x1="223.044" y1="62.515" x2="266.915" y2="242.617"/>
			<polygon points="263.969,240.551 266.837,242.296 268.583,239.427 269.059,241.384 267.313,244.253 264.446,242.508 			"/>
		</g>
	</g>
	<g>
		<g>
			<line fill="none" stroke="#000000" stroke-width="2" x1="351.193" y1="122.549" x2="361.583" y2="271.479"/>
			<polygon points="359.027,268.946 361.561,271.15 363.764,268.616 363.904,270.625 361.701,273.159 359.168,270.956 			"/>
		</g>
	</g>
	<g>
		<g>
			<line fill="none" stroke="#000000" stroke-width="2" x1="432.008" y1="64.824" x2="435.472" y2="257.625"/>
			<polygon points="433.05,254.964 435.466,257.295 437.798,254.878 437.834,256.893 435.502,259.309 433.086,256.978 			"/>
		</g>
	</g>
	<g>
		<g>
			<line fill="none" stroke="#000000" stroke-width="2" x1="119.14" y1="517.387" x2="168.783" y2="360.374"/>
			<polygon points="170.231,363.668 168.684,360.688 165.704,362.236 166.311,360.315 169.291,358.768 170.838,361.747 			"/>
		</g>
	</g>
	<g>
		<g>
			<line fill="none" stroke="#000000" stroke-width="2" x1="339.648" y1="459.662" x2="354.657" y2="293.415"/>
			<polygon points="356.777,296.322 354.627,293.743 352.048,295.895 352.229,293.889 354.808,291.737 356.958,294.315 			"/>
		</g>
	</g>
	<g>
		<g>
			<line fill="none" stroke="#000000" stroke-width="2" x1="378.202" y1="519.695" x2="392.056" y2="341.903"/>
			<polygon points="394.212,344.784 392.031,342.231 389.479,344.415 389.635,342.406 392.187,340.224 394.369,342.775 			"/>
		</g>
	</g>
	<g>
		<g>
			<line fill="none" stroke="#000000" stroke-width="2" x1="535.913" y1="518.542" x2="517.44" y2="367.302"/>
			<polygon points="520.124,369.698 517.48,367.629 515.411,370.274 515.167,368.274 517.236,365.63 519.88,367.698 			"/>
		</g>
	</g>
	<g>
		<g>
			<line fill="none" stroke="#000000" stroke-width="2" x1="669.834" y1="518.542" x2="635.199" y2="362.685"/>
			<polygon points="638.103,364.81 635.271,363.006 633.468,365.84 633.03,363.873 634.834,361.04 637.666,362.843 			"/>
		</g>
	</g>
	<g>
		<path d="M58.817,37.532h9.2v1.85h-6.995v5.677h6.463v1.825h-6.463v7.73h-2.205V37.532z"/>
		<path d="M78.557,51.674c0,1.064,0.051,2.104,0.203,2.94h-2.028l-0.177-1.546h-0.076c-0.684,0.963-2.002,1.825-3.751,1.825
			c-2.484,0-3.751-1.749-3.751-3.523c0-2.965,2.636-4.587,7.375-4.562v-0.253c0-1.014-0.279-2.839-2.788-2.839
			c-1.141,0-2.332,0.355-3.193,0.913l-0.507-1.47c1.014-0.659,2.484-1.09,4.03-1.09c3.751,0,4.663,2.56,4.663,5.019V51.674z
			 M76.403,48.354c-2.433-0.051-5.196,0.38-5.196,2.763c0,1.445,0.963,2.129,2.104,2.129c1.597,0,2.61-1.014,2.965-2.053
			c0.076-0.228,0.126-0.482,0.126-0.71V48.354z"/>
		<path d="M82.152,45.667c0-1.267-0.025-2.306-0.101-3.32h1.977l0.127,2.028h0.051c0.608-1.166,2.027-2.307,4.055-2.307
			c1.698,0,4.334,1.014,4.334,5.221v7.325h-2.23v-7.071c0-1.977-0.735-3.624-2.839-3.624c-1.47,0-2.61,1.039-2.991,2.281
			c-0.101,0.279-0.152,0.659-0.152,1.039v7.375h-2.23V45.667z"/>
	</g>
	<g>
		<path d="M186.863,13.288v7.147h8.262v-7.147h2.23V30.37h-2.23v-8.009h-8.262v8.009h-2.205V13.288H186.863z"/>
		<path d="M203.838,14.656c0.025,0.76-0.532,1.369-1.419,1.369c-0.786,0-1.343-0.608-1.343-1.369c0-0.786,0.583-1.394,1.394-1.394
			C203.306,13.262,203.838,13.871,203.838,14.656z M201.354,30.37V18.103h2.23V30.37H201.354z"/>
		<path d="M217.75,28.596c0,2.813-0.557,4.537-1.749,5.601c-1.191,1.115-2.915,1.47-4.461,1.47c-1.47,0-3.092-0.354-4.08-1.014
			l0.557-1.698c0.811,0.507,2.079,0.963,3.599,0.963c2.281,0,3.954-1.191,3.954-4.283v-1.369h-0.051
			c-0.685,1.141-2.002,2.053-3.903,2.053c-3.042,0-5.221-2.585-5.221-5.981c0-4.156,2.712-6.514,5.525-6.514
			c2.129,0,3.295,1.115,3.827,2.129h0.051l0.101-1.851h1.952c-0.051,0.887-0.102,1.875-0.102,3.371V28.596z M215.546,22.944
			c0-0.38-0.025-0.709-0.127-1.014c-0.405-1.292-1.495-2.357-3.117-2.357c-2.129,0-3.65,1.799-3.65,4.638
			c0,2.408,1.217,4.41,3.625,4.41c1.369,0,2.61-0.861,3.092-2.281c0.127-0.38,0.178-0.811,0.178-1.191V22.944z"/>
		<path d="M221.447,12.375h2.23v7.654h0.051c0.354-0.633,0.912-1.191,1.597-1.571c0.659-0.38,1.444-0.634,2.281-0.634
			c1.647,0,4.284,1.014,4.284,5.247v7.299h-2.23v-7.046c0-1.977-0.735-3.649-2.839-3.649c-1.444,0-2.585,1.014-2.991,2.23
			c-0.126,0.304-0.152,0.634-0.152,1.064v7.401h-2.23V12.375z"/>
		<path d="M240.679,22.69v1.647h-6.26V22.69H240.679z"/>
		<path d="M243.287,22.108c0-1.572-0.051-2.839-0.101-4.005h2.002l0.102,2.104h0.051c0.912-1.496,2.357-2.383,4.359-2.383
			c2.965,0,5.196,2.509,5.196,6.235c0,4.41-2.687,6.59-5.576,6.59c-1.622,0-3.042-0.709-3.776-1.926h-0.051v6.666h-2.205V22.108z
			 M245.492,25.377c0,0.33,0.051,0.634,0.102,0.913c0.405,1.546,1.749,2.61,3.345,2.61c2.357,0,3.726-1.926,3.726-4.739
			c0-2.458-1.292-4.562-3.649-4.562c-1.521,0-2.94,1.09-3.371,2.763c-0.076,0.279-0.152,0.608-0.152,0.912V25.377z"/>
		<path d="M257.704,21.93c0-1.444-0.025-2.687-0.101-3.827h1.951l0.076,2.408h0.102c0.558-1.647,1.901-2.687,3.396-2.687
			c0.253,0,0.431,0.025,0.634,0.076v2.104c-0.228-0.05-0.457-0.076-0.76-0.076c-1.572,0-2.687,1.191-2.991,2.864
			c-0.051,0.304-0.102,0.659-0.102,1.039v6.539h-2.205V21.93z"/>
		<path d="M266.978,24.642c0.05,3.016,1.977,4.258,4.207,4.258c1.597,0,2.56-0.279,3.396-0.633l0.38,1.597
			c-0.786,0.355-2.129,0.786-4.081,0.786c-3.776,0-6.032-2.509-6.032-6.209s2.18-6.615,5.753-6.615c4.004,0,5.069,3.523,5.069,5.779
			c0,0.456-0.05,0.811-0.076,1.039H266.978z M273.516,23.045c0.025-1.419-0.583-3.625-3.092-3.625c-2.256,0-3.244,2.079-3.422,3.625
			H273.516z"/>
		<path d="M278.125,28.089c0.659,0.431,1.825,0.887,2.94,0.887c1.622,0,2.383-0.811,2.383-1.825c0-1.064-0.634-1.647-2.281-2.256
			c-2.205-0.786-3.244-2.002-3.244-3.472c0-1.977,1.597-3.599,4.232-3.599c1.242,0,2.332,0.355,3.016,0.761l-0.558,1.622
			c-0.481-0.304-1.369-0.71-2.509-0.71c-1.318,0-2.053,0.76-2.053,1.673c0,1.014,0.735,1.47,2.332,2.078
			c2.129,0.811,3.219,1.875,3.219,3.701c0,2.154-1.673,3.7-4.587,3.7c-1.343,0-2.585-0.355-3.447-0.862L278.125,28.089z"/>
		<path d="M288.158,28.089c0.659,0.431,1.825,0.887,2.94,0.887c1.622,0,2.383-0.811,2.383-1.825c0-1.064-0.634-1.647-2.281-2.256
			c-2.205-0.786-3.244-2.002-3.244-3.472c0-1.977,1.597-3.599,4.232-3.599c1.242,0,2.332,0.355,3.016,0.761l-0.558,1.622
			c-0.481-0.304-1.369-0.71-2.509-0.71c-1.318,0-2.053,0.76-2.053,1.673c0,1.014,0.735,1.47,2.332,2.078
			c2.129,0.811,3.219,1.875,3.219,3.701c0,2.154-1.673,3.7-4.587,3.7c-1.343,0-2.585-0.355-3.447-0.862L288.158,28.089z"/>
		<path d="M308.761,27.024c0,1.268,0.025,2.383,0.102,3.346h-1.977l-0.126-2.002h-0.051c-0.583,0.989-1.875,2.281-4.055,2.281
			c-1.926,0-4.233-1.064-4.233-5.373v-7.173h2.23v6.792c0,2.332,0.71,3.903,2.737,3.903c1.496,0,2.535-1.039,2.94-2.028
			c0.127-0.329,0.203-0.735,0.203-1.14v-7.528h2.23V27.024z"/>
		<path d="M312.457,21.93c0-1.444-0.025-2.687-0.101-3.827h1.951l0.076,2.408h0.102c0.558-1.647,1.901-2.687,3.396-2.687
			c0.253,0,0.431,0.025,0.634,0.076v2.104c-0.228-0.05-0.457-0.076-0.76-0.076c-1.572,0-2.687,1.191-2.991,2.864
			c-0.051,0.304-0.102,0.659-0.102,1.039v6.539h-2.205V21.93z"/>
		<path d="M321.731,24.642c0.05,3.016,1.977,4.258,4.207,4.258c1.597,0,2.56-0.279,3.396-0.633l0.38,1.597
			c-0.786,0.355-2.129,0.786-4.081,0.786c-3.776,0-6.032-2.509-6.032-6.209s2.18-6.615,5.753-6.615c4.004,0,5.069,3.523,5.069,5.779
			c0,0.456-0.05,0.811-0.076,1.039H321.731z M328.27,23.045c0.025-1.419-0.583-3.625-3.092-3.625c-2.256,0-3.244,2.079-3.422,3.625
			H328.27z"/>
		<path d="M193.326,52.427c-0.583,0.304-1.875,0.735-3.523,0.735c-3.7,0-6.108-2.535-6.108-6.286c0-3.776,2.585-6.514,6.59-6.514
			c1.318,0,2.484,0.33,3.092,0.634l-0.507,1.724c-0.532-0.304-1.368-0.583-2.585-0.583c-2.813,0-4.334,2.078-4.334,4.638
			c0,2.838,1.825,4.587,4.258,4.587c1.268,0,2.104-0.33,2.737-0.608L193.326,52.427z"/>
		<path d="M206.882,46.648c0,4.537-3.143,6.514-6.108,6.514c-3.32,0-5.88-2.433-5.88-6.311c0-4.105,2.687-6.514,6.083-6.514
			C204.5,40.337,206.882,42.897,206.882,46.648z M197.149,46.775c0,2.687,1.546,4.714,3.726,4.714c2.129,0,3.726-2.002,3.726-4.765
			c0-2.079-1.04-4.714-3.675-4.714S197.149,44.443,197.149,46.775z"/>
		<path d="M209.691,43.936c0-1.267-0.025-2.306-0.101-3.32h1.951l0.102,1.977h0.076c0.684-1.166,1.825-2.256,3.852-2.256
			c1.673,0,2.94,1.014,3.473,2.458h0.05c0.38-0.684,0.862-1.216,1.369-1.597c0.735-0.558,1.546-0.862,2.712-0.862
			c1.622,0,4.03,1.064,4.03,5.323v7.223h-2.18v-6.944c0-2.357-0.861-3.776-2.661-3.776c-1.267,0-2.255,0.938-2.636,2.027
			c-0.102,0.304-0.177,0.71-0.177,1.115v7.578h-2.18v-7.35c0-1.952-0.862-3.371-2.56-3.371c-1.394,0-2.408,1.115-2.763,2.23
			c-0.126,0.33-0.177,0.71-0.177,1.09v7.401h-2.18V43.936z"/>
		<path d="M230.822,44.621c0-1.572-0.051-2.839-0.101-4.005h2.002l0.102,2.104h0.051c0.912-1.496,2.357-2.383,4.359-2.383
			c2.965,0,5.196,2.509,5.196,6.235c0,4.41-2.687,6.59-5.576,6.59c-1.622,0-3.042-0.709-3.776-1.926h-0.051v6.666h-2.205V44.621z
			 M233.027,47.89c0,0.33,0.051,0.634,0.102,0.913c0.405,1.546,1.749,2.61,3.345,2.61c2.357,0,3.726-1.926,3.726-4.739
			c0-2.458-1.292-4.562-3.649-4.562c-1.521,0-2.94,1.09-3.371,2.763c-0.076,0.279-0.152,0.608-0.152,0.912V47.89z"/>
		<path d="M245.239,44.443c0-1.444-0.025-2.687-0.101-3.827h1.951l0.076,2.408h0.102c0.558-1.647,1.901-2.687,3.396-2.687
			c0.253,0,0.431,0.025,0.634,0.076v2.104c-0.228-0.05-0.457-0.076-0.76-0.076c-1.572,0-2.687,1.191-2.991,2.864
			c-0.051,0.304-0.102,0.659-0.102,1.039v6.539h-2.205V44.443z"/>
		<path d="M254.513,47.155c0.05,3.016,1.977,4.258,4.207,4.258c1.597,0,2.56-0.279,3.396-0.633l0.38,1.597
			c-0.786,0.355-2.129,0.786-4.081,0.786c-3.776,0-6.032-2.509-6.032-6.209s2.18-6.615,5.753-6.615c4.004,0,5.069,3.523,5.069,5.779
			c0,0.456-0.05,0.811-0.076,1.039H254.513z M261.051,45.558c0.025-1.419-0.583-3.625-3.092-3.625c-2.256,0-3.244,2.079-3.422,3.625
			H261.051z"/>
		<path d="M265.66,50.602c0.659,0.431,1.825,0.887,2.94,0.887c1.622,0,2.383-0.811,2.383-1.825c0-1.064-0.634-1.647-2.281-2.256
			c-2.205-0.786-3.244-2.002-3.244-3.472c0-1.977,1.597-3.599,4.232-3.599c1.242,0,2.332,0.355,3.016,0.761l-0.558,1.622
			c-0.481-0.304-1.369-0.71-2.509-0.71c-1.318,0-2.053,0.76-2.053,1.673c0,1.014,0.735,1.47,2.332,2.078
			c2.129,0.811,3.219,1.875,3.219,3.701c0,2.154-1.673,3.7-4.587,3.7c-1.343,0-2.585-0.355-3.447-0.862L265.66,50.602z"/>
		<path d="M275.693,50.602c0.659,0.431,1.825,0.887,2.94,0.887c1.622,0,2.383-0.811,2.383-1.825c0-1.064-0.634-1.647-2.281-2.256
			c-2.205-0.786-3.244-2.002-3.244-3.472c0-1.977,1.597-3.599,4.232-3.599c1.242,0,2.332,0.355,3.016,0.761l-0.558,1.622
			c-0.481-0.304-1.369-0.71-2.509-0.71c-1.318,0-2.053,0.76-2.053,1.673c0,1.014,0.735,1.47,2.332,2.078
			c2.129,0.811,3.219,1.875,3.219,3.701c0,2.154-1.673,3.7-4.587,3.7c-1.343,0-2.585-0.355-3.447-0.862L275.693,50.602z"/>
		<path d="M297.132,46.648c0,4.537-3.143,6.514-6.108,6.514c-3.32,0-5.88-2.433-5.88-6.311c0-4.105,2.687-6.514,6.083-6.514
			C294.75,40.337,297.132,42.897,297.132,46.648z M287.4,46.775c0,2.687,1.546,4.714,3.726,4.714c2.129,0,3.726-2.002,3.726-4.765
			c0-2.079-1.04-4.714-3.675-4.714S287.4,44.443,287.4,46.775z"/>
		<path d="M299.941,44.443c0-1.444-0.025-2.687-0.101-3.827h1.951l0.076,2.408h0.102c0.558-1.647,1.901-2.687,3.396-2.687
			c0.253,0,0.431,0.025,0.634,0.076v2.104c-0.228-0.05-0.457-0.076-0.76-0.076c-1.572,0-2.687,1.191-2.991,2.864
			c-0.051,0.304-0.102,0.659-0.102,1.039v6.539h-2.205V44.443z"/>
	</g>
	<g>
		<path d="M368.118,13.288v7.147h8.262v-7.147h2.23V30.37h-2.23v-8.009h-8.262v8.009h-2.205V13.288H368.118z"/>
		<path d="M385.094,14.656c0.025,0.76-0.532,1.369-1.419,1.369c-0.786,0-1.343-0.608-1.343-1.369c0-0.786,0.583-1.394,1.394-1.394
			C384.562,13.262,385.094,13.871,385.094,14.656z M382.61,30.37V18.103h2.23V30.37H382.61z"/>
		<path d="M399.006,28.596c0,2.813-0.558,4.537-1.749,5.601c-1.191,1.115-2.915,1.47-4.461,1.47c-1.47,0-3.092-0.354-4.081-1.014
			l0.558-1.698c0.811,0.507,2.079,0.963,3.599,0.963c2.281,0,3.954-1.191,3.954-4.283v-1.369h-0.05
			c-0.685,1.141-2.002,2.053-3.903,2.053c-3.042,0-5.221-2.585-5.221-5.981c0-4.156,2.712-6.514,5.525-6.514
			c2.129,0,3.295,1.115,3.827,2.129h0.051l0.101-1.851h1.952c-0.051,0.887-0.102,1.875-0.102,3.371V28.596z M396.801,22.944
			c0-0.38-0.025-0.709-0.127-1.014c-0.405-1.292-1.495-2.357-3.117-2.357c-2.129,0-3.65,1.799-3.65,4.638
			c0,2.408,1.217,4.41,3.625,4.41c1.369,0,2.61-0.861,3.092-2.281c0.127-0.38,0.178-0.811,0.178-1.191V22.944z"/>
		<path d="M402.702,12.375h2.23v7.654h0.051c0.354-0.633,0.912-1.191,1.597-1.571c0.659-0.38,1.444-0.634,2.281-0.634
			c1.647,0,4.284,1.014,4.284,5.247v7.299h-2.23v-7.046c0-1.977-0.735-3.649-2.839-3.649c-1.444,0-2.585,1.014-2.991,2.23
			c-0.126,0.304-0.152,0.634-0.152,1.064v7.401h-2.23V12.375z"/>
		<path d="M421.935,22.69v1.647h-6.26V22.69H421.935z"/>
		<path d="M424.542,22.108c0-1.572-0.051-2.839-0.101-4.005h2.002l0.102,2.104h0.051c0.912-1.496,2.357-2.383,4.359-2.383
			c2.965,0,5.196,2.509,5.196,6.235c0,4.41-2.687,6.59-5.576,6.59c-1.622,0-3.042-0.709-3.776-1.926h-0.051v6.666h-2.205V22.108z
			 M426.748,25.377c0,0.33,0.051,0.634,0.102,0.913c0.405,1.546,1.749,2.61,3.345,2.61c2.357,0,3.726-1.926,3.726-4.739
			c0-2.458-1.292-4.562-3.649-4.562c-1.521,0-2.94,1.09-3.371,2.763c-0.076,0.279-0.152,0.608-0.152,0.912V25.377z"/>
		<path d="M438.959,21.93c0-1.444-0.025-2.687-0.102-3.827h1.951l0.076,2.408h0.102c0.558-1.647,1.9-2.687,3.396-2.687
			c0.253,0,0.431,0.025,0.633,0.076v2.104c-0.228-0.05-0.456-0.076-0.76-0.076c-1.571,0-2.687,1.191-2.991,2.864
			c-0.051,0.304-0.101,0.659-0.101,1.039v6.539h-2.205V21.93z"/>
		<path d="M448.232,24.642c0.051,3.016,1.978,4.258,4.207,4.258c1.598,0,2.561-0.279,3.396-0.633l0.381,1.597
			c-0.786,0.355-2.13,0.786-4.081,0.786c-3.776,0-6.032-2.509-6.032-6.209s2.18-6.615,5.754-6.615c4.004,0,5.068,3.523,5.068,5.779
			c0,0.456-0.051,0.811-0.076,1.039H448.232z M454.771,23.045c0.025-1.419-0.583-3.625-3.092-3.625
			c-2.256,0-3.244,2.079-3.422,3.625H454.771z"/>
		<path d="M459.38,28.089c0.659,0.431,1.825,0.887,2.94,0.887c1.622,0,2.382-0.811,2.382-1.825c0-1.064-0.634-1.647-2.28-2.256
			c-2.205-0.786-3.244-2.002-3.244-3.472c0-1.977,1.597-3.599,4.232-3.599c1.241,0,2.331,0.355,3.016,0.761l-0.558,1.622
			c-0.481-0.304-1.368-0.71-2.509-0.71c-1.318,0-2.053,0.76-2.053,1.673c0,1.014,0.734,1.47,2.331,2.078
			c2.129,0.811,3.219,1.875,3.219,3.701c0,2.154-1.673,3.7-4.587,3.7c-1.344,0-2.585-0.355-3.447-0.862L459.38,28.089z"/>
		<path d="M469.414,28.089c0.659,0.431,1.825,0.887,2.94,0.887c1.622,0,2.382-0.811,2.382-1.825c0-1.064-0.634-1.647-2.28-2.256
			c-2.205-0.786-3.244-2.002-3.244-3.472c0-1.977,1.597-3.599,4.232-3.599c1.241,0,2.331,0.355,3.016,0.761l-0.558,1.622
			c-0.481-0.304-1.368-0.71-2.509-0.71c-1.318,0-2.053,0.76-2.053,1.673c0,1.014,0.734,1.47,2.331,2.078
			c2.129,0.811,3.219,1.875,3.219,3.701c0,2.154-1.673,3.7-4.587,3.7c-1.344,0-2.585-0.355-3.447-0.862L469.414,28.089z"/>
		<path d="M490.017,27.024c0,1.268,0.025,2.383,0.101,3.346h-1.977l-0.127-2.002h-0.051c-0.583,0.989-1.875,2.281-4.055,2.281
			c-1.927,0-4.232-1.064-4.232-5.373v-7.173h2.23v6.792c0,2.332,0.709,3.903,2.737,3.903c1.495,0,2.534-1.039,2.939-2.028
			c0.127-0.329,0.203-0.735,0.203-1.14v-7.528h2.23V27.024z"/>
		<path d="M493.713,21.93c0-1.444-0.025-2.687-0.102-3.827h1.951l0.076,2.408h0.102c0.558-1.647,1.9-2.687,3.396-2.687
			c0.253,0,0.431,0.025,0.633,0.076v2.104c-0.228-0.05-0.456-0.076-0.76-0.076c-1.571,0-2.687,1.191-2.991,2.864
			c-0.051,0.304-0.101,0.659-0.101,1.039v6.539h-2.205V21.93z"/>
		<path d="M502.986,24.642c0.051,3.016,1.978,4.258,4.207,4.258c1.598,0,2.561-0.279,3.396-0.633l0.381,1.597
			c-0.786,0.355-2.13,0.786-4.081,0.786c-3.776,0-6.032-2.509-6.032-6.209s2.18-6.615,5.754-6.615c4.004,0,5.068,3.523,5.068,5.779
			c0,0.456-0.051,0.811-0.076,1.039H502.986z M509.525,23.045c0.025-1.419-0.583-3.625-3.092-3.625
			c-2.256,0-3.244,2.079-3.422,3.625H509.525z"/>
		<path d="M368.523,37.676v2.94h3.193v1.698h-3.193v6.615c0,1.521,0.431,2.382,1.673,2.382c0.608,0,0.963-0.051,1.292-0.152
			l0.102,1.673c-0.431,0.178-1.115,0.33-1.977,0.33c-1.039,0-1.875-0.355-2.408-0.963c-0.634-0.659-0.862-1.749-0.862-3.194v-6.691
			h-1.901v-1.698h1.901V38.36L368.523,37.676z"/>
		<path d="M384.488,49.537c0,1.268,0.025,2.383,0.102,3.346h-1.977l-0.126-2.002h-0.051c-0.583,0.989-1.875,2.281-4.055,2.281
			c-1.926,0-4.233-1.064-4.233-5.373v-7.173h2.23v6.792c0,2.332,0.71,3.903,2.737,3.903c1.496,0,2.535-1.039,2.94-2.028
			c0.127-0.329,0.203-0.735,0.203-1.14v-7.528h2.23V49.537z"/>
		<path d="M388.184,44.443c0-1.444-0.025-2.687-0.101-3.827h1.951l0.076,2.408h0.102c0.558-1.647,1.901-2.687,3.396-2.687
			c0.253,0,0.431,0.025,0.634,0.076v2.104c-0.228-0.05-0.457-0.076-0.76-0.076c-1.572,0-2.687,1.191-2.991,2.864
			c-0.051,0.304-0.102,0.659-0.102,1.039v6.539h-2.205V44.443z"/>
		<path d="M396.571,34.888h2.205v7.705h0.051c0.786-1.369,2.205-2.256,4.182-2.256c3.042,0,5.196,2.535,5.17,6.26
			c0,4.385-2.763,6.564-5.5,6.564c-1.774,0-3.194-0.684-4.106-2.306h-0.076l-0.102,2.027h-1.926c0.05-0.836,0.101-2.078,0.101-3.168
			V34.888z M398.776,47.966c0,0.279,0.051,0.558,0.102,0.811c0.431,1.546,1.723,2.611,3.345,2.611c2.332,0,3.726-1.901,3.726-4.714
			c0-2.458-1.267-4.562-3.649-4.562c-1.521,0-2.94,1.039-3.396,2.737c-0.051,0.253-0.127,0.558-0.127,0.912V47.966z"/>
		<path d="M413.471,37.169c0.025,0.76-0.532,1.369-1.419,1.369c-0.786,0-1.343-0.608-1.343-1.369c0-0.786,0.583-1.394,1.394-1.394
			C412.939,35.775,413.471,36.383,413.471,37.169z M410.987,52.883V40.616h2.23v12.267H410.987z"/>
		<path d="M416.916,43.936c0-1.267-0.025-2.306-0.101-3.32h1.977l0.127,2.028h0.051c0.608-1.166,2.027-2.307,4.055-2.307
			c1.698,0,4.334,1.014,4.334,5.221v7.325h-2.23v-7.071c0-1.977-0.735-3.624-2.839-3.624c-1.47,0-2.61,1.039-2.991,2.281
			c-0.101,0.279-0.152,0.659-0.152,1.039v7.375h-2.23V43.936z"/>
		<path d="M432.22,47.155c0.05,3.016,1.977,4.258,4.208,4.258c1.597,0,2.56-0.279,3.396-0.633l0.381,1.597
			c-0.786,0.355-2.13,0.786-4.081,0.786c-3.776,0-6.032-2.509-6.032-6.209s2.18-6.615,5.754-6.615c4.004,0,5.068,3.523,5.068,5.779
			c0,0.456-0.051,0.811-0.076,1.039H432.22z M438.759,45.558c0.025-1.419-0.583-3.625-3.092-3.625c-2.256,0-3.244,2.079-3.422,3.625
			H438.759z"/>
	</g>
	<g>
		<path d="M274.604,72.167v7.147h8.262v-7.147h2.23V89.25h-2.23v-8.009h-8.262v8.009h-2.205V72.167H274.604z"/>
		<path d="M291.58,73.536c0.025,0.76-0.532,1.369-1.419,1.369c-0.786,0-1.343-0.608-1.343-1.369c0-0.786,0.583-1.394,1.394-1.394
			C291.047,72.142,291.58,72.75,291.58,73.536z M289.096,89.25V76.982h2.23V89.25H289.096z"/>
		<path d="M305.492,87.476c0,2.813-0.557,4.537-1.749,5.601c-1.191,1.115-2.915,1.47-4.461,1.47c-1.47,0-3.092-0.354-4.08-1.014
			l0.557-1.698c0.811,0.507,2.079,0.963,3.599,0.963c2.281,0,3.954-1.191,3.954-4.283v-1.369h-0.051
			c-0.685,1.141-2.002,2.053-3.903,2.053c-3.042,0-5.221-2.585-5.221-5.981c0-4.156,2.712-6.514,5.525-6.514
			c2.129,0,3.295,1.115,3.827,2.129h0.051l0.101-1.851h1.952c-0.051,0.887-0.102,1.875-0.102,3.371V87.476z M303.287,81.823
			c0-0.38-0.025-0.709-0.127-1.014c-0.405-1.292-1.495-2.357-3.117-2.357c-2.129,0-3.65,1.799-3.65,4.638
			c0,2.408,1.217,4.41,3.625,4.41c1.369,0,2.61-0.861,3.092-2.281c0.127-0.38,0.178-0.811,0.178-1.191V81.823z"/>
		<path d="M309.188,71.255h2.23v7.654h0.051c0.354-0.633,0.912-1.191,1.597-1.571c0.659-0.38,1.444-0.634,2.281-0.634
			c1.647,0,4.284,1.014,4.284,5.247v7.299h-2.23v-7.046c0-1.977-0.735-3.649-2.839-3.649c-1.444,0-2.585,1.014-2.991,2.23
			c-0.126,0.304-0.152,0.634-0.152,1.064v7.401h-2.23V71.255z"/>
		<path d="M328.42,81.57v1.647h-6.26V81.57H328.42z"/>
		<path d="M331.028,80.987c0-1.572-0.051-2.839-0.101-4.005h2.002l0.102,2.104h0.051c0.912-1.496,2.357-2.383,4.359-2.383
			c2.965,0,5.196,2.509,5.196,6.235c0,4.41-2.687,6.59-5.576,6.59c-1.622,0-3.042-0.709-3.776-1.926h-0.051v6.666h-2.205V80.987z
			 M333.233,84.256c0,0.33,0.051,0.634,0.102,0.913c0.405,1.546,1.749,2.61,3.345,2.61c2.357,0,3.726-1.926,3.726-4.739
			c0-2.458-1.292-4.562-3.649-4.562c-1.521,0-2.94,1.09-3.371,2.763c-0.076,0.279-0.152,0.608-0.152,0.912V84.256z"/>
		<path d="M345.445,80.81c0-1.444-0.025-2.687-0.101-3.827h1.951l0.076,2.408h0.102c0.558-1.647,1.901-2.687,3.396-2.687
			c0.253,0,0.431,0.025,0.634,0.076v2.104c-0.228-0.05-0.457-0.076-0.76-0.076c-1.572,0-2.687,1.191-2.991,2.864
			c-0.051,0.304-0.102,0.659-0.102,1.039v6.539h-2.205V80.81z"/>
		<path d="M354.719,83.521c0.05,3.016,1.977,4.258,4.207,4.258c1.597,0,2.56-0.279,3.396-0.633l0.38,1.597
			c-0.786,0.355-2.129,0.786-4.081,0.786c-3.776,0-6.032-2.509-6.032-6.209s2.18-6.615,5.753-6.615c4.004,0,5.069,3.523,5.069,5.779
			c0,0.456-0.05,0.811-0.076,1.039H354.719z M361.257,81.925c0.025-1.419-0.583-3.624-3.092-3.624c-2.256,0-3.244,2.078-3.422,3.624
			H361.257z"/>
		<path d="M365.866,86.968c0.659,0.431,1.825,0.887,2.94,0.887c1.622,0,2.383-0.811,2.383-1.825c0-1.064-0.634-1.647-2.281-2.256
			c-2.205-0.786-3.244-2.002-3.244-3.472c0-1.977,1.597-3.599,4.232-3.599c1.242,0,2.332,0.355,3.016,0.761l-0.558,1.622
			c-0.481-0.304-1.369-0.71-2.509-0.71c-1.318,0-2.053,0.76-2.053,1.673c0,1.014,0.735,1.47,2.332,2.078
			c2.129,0.811,3.219,1.875,3.219,3.701c0,2.154-1.673,3.7-4.587,3.7c-1.343,0-2.585-0.355-3.447-0.862L365.866,86.968z"/>
		<path d="M375.899,86.968c0.659,0.431,1.825,0.887,2.94,0.887c1.622,0,2.383-0.811,2.383-1.825c0-1.064-0.634-1.647-2.281-2.256
			c-2.205-0.786-3.244-2.002-3.244-3.472c0-1.977,1.597-3.599,4.232-3.599c1.242,0,2.332,0.355,3.016,0.761l-0.558,1.622
			c-0.481-0.304-1.369-0.71-2.509-0.71c-1.318,0-2.053,0.76-2.053,1.673c0,1.014,0.735,1.47,2.332,2.078
			c2.129,0.811,3.219,1.875,3.219,3.701c0,2.154-1.673,3.7-4.587,3.7c-1.343,0-2.585-0.355-3.447-0.862L375.899,86.968z"/>
		<path d="M396.502,85.904c0,1.268,0.025,2.383,0.102,3.346h-1.977l-0.126-2.002h-0.051c-0.583,0.989-1.875,2.281-4.055,2.281
			c-1.926,0-4.233-1.064-4.233-5.373v-7.173h2.23v6.792c0,2.332,0.71,3.903,2.737,3.903c1.496,0,2.535-1.039,2.94-2.028
			c0.127-0.329,0.203-0.735,0.203-1.14v-7.528h2.23V85.904z"/>
		<path d="M400.198,80.81c0-1.444-0.025-2.687-0.101-3.827h1.951l0.076,2.408h0.102c0.558-1.647,1.901-2.687,3.396-2.687
			c0.253,0,0.431,0.025,0.634,0.076v2.104c-0.228-0.05-0.457-0.076-0.76-0.076c-1.572,0-2.687,1.191-2.991,2.864
			c-0.051,0.304-0.102,0.659-0.102,1.039v6.539h-2.205V80.81z"/>
		<path d="M409.472,83.521c0.05,3.016,1.977,4.258,4.207,4.258c1.597,0,2.56-0.279,3.396-0.633l0.38,1.597
			c-0.786,0.355-2.129,0.786-4.081,0.786c-3.776,0-6.032-2.509-6.032-6.209s2.18-6.615,5.753-6.615c4.004,0,5.069,3.523,5.069,5.779
			c0,0.456-0.05,0.811-0.076,1.039H409.472z M416.011,81.925c0.025-1.419-0.583-3.624-3.092-3.624c-2.256,0-3.244,2.078-3.422,3.624
			H416.011z"/>
		<path d="M272.019,109.481c0.659,0.431,1.825,0.887,2.94,0.887c1.622,0,2.383-0.811,2.383-1.825c0-1.064-0.634-1.647-2.281-2.256
			c-2.205-0.786-3.244-2.002-3.244-3.472c0-1.977,1.597-3.599,4.232-3.599c1.242,0,2.332,0.355,3.016,0.761l-0.558,1.622
			c-0.481-0.304-1.369-0.71-2.509-0.71c-1.318,0-2.053,0.76-2.053,1.673c0,1.014,0.735,1.47,2.332,2.078
			c2.129,0.811,3.219,1.875,3.219,3.701c0,2.154-1.673,3.7-4.587,3.7c-1.343,0-2.585-0.355-3.447-0.862L272.019,109.481z"/>
		<path d="M282.356,93.768h2.23v7.654h0.051c0.354-0.633,0.912-1.191,1.597-1.571c0.659-0.38,1.444-0.634,2.281-0.634
			c1.647,0,4.284,1.014,4.284,5.247v7.299h-2.23v-7.046c0-1.977-0.735-3.649-2.839-3.649c-1.444,0-2.585,1.014-2.991,2.23
			c-0.126,0.304-0.152,0.634-0.152,1.064v7.401h-2.23V93.768z"/>
		<path d="M305.036,108.822c0,1.064,0.051,2.104,0.203,2.94h-2.028l-0.177-1.546h-0.076c-0.684,0.963-2.002,1.825-3.751,1.825
			c-2.484,0-3.751-1.749-3.751-3.523c0-2.965,2.636-4.587,7.375-4.562v-0.253c0-1.014-0.279-2.839-2.788-2.839
			c-1.141,0-2.332,0.355-3.193,0.913l-0.507-1.47c1.014-0.659,2.484-1.09,4.03-1.09c3.751,0,4.663,2.56,4.663,5.019V108.822z
			 M302.881,105.502c-2.433-0.051-5.196,0.38-5.196,2.763c0,1.445,0.963,2.129,2.104,2.129c1.597,0,2.61-1.014,2.965-2.053
			c0.076-0.229,0.126-0.482,0.126-0.71V105.502z"/>
		<path d="M308.859,111.762v-10.569h-1.723v-1.698h1.723v-0.583c0-1.724,0.38-3.295,1.419-4.284c0.836-0.811,1.952-1.14,2.991-1.14
			c0.786,0,1.47,0.177,1.901,0.354l-0.304,1.724c-0.33-0.152-0.786-0.279-1.419-0.279c-1.901,0-2.382,1.673-2.382,3.548v0.659h2.965
			v1.698h-2.965v10.569H308.859z"/>
		<path d="M318.994,96.555v2.94h3.193v1.698h-3.193v6.615c0,1.521,0.431,2.382,1.673,2.382c0.608,0,0.963-0.051,1.292-0.152
			l0.102,1.673c-0.431,0.178-1.115,0.33-1.977,0.33c-1.039,0-1.875-0.355-2.408-0.963c-0.634-0.659-0.862-1.749-0.862-3.194v-6.691
			h-1.901v-1.698h1.901V97.24L318.994,96.555z"/>
	</g>
	<g>
		<path d="M63.436,523.576h2.205v15.231h7.299v1.851h-9.504V523.576z"/>
		<path d="M86.065,534.424c0,4.536-3.143,6.513-6.108,6.513c-3.32,0-5.88-2.433-5.88-6.311c0-4.105,2.687-6.514,6.083-6.514
			C83.683,528.112,86.065,530.672,86.065,534.424z M76.333,534.55c0,2.687,1.546,4.715,3.726,4.715c2.129,0,3.726-2.003,3.726-4.766
			c0-2.078-1.04-4.714-3.675-4.714S76.333,532.219,76.333,534.55z"/>
		<path d="M89.584,528.392l1.622,6.234c0.355,1.369,0.684,2.636,0.912,3.903h0.076c0.279-1.242,0.685-2.56,1.09-3.903l2.002-6.234
			h1.875l1.901,6.133c0.456,1.471,0.811,2.763,1.09,4.005h0.076c0.203-1.242,0.533-2.534,0.938-3.979l1.749-6.158h2.205
			l-3.954,12.267h-2.027l-1.876-5.854c-0.431-1.369-0.786-2.585-1.089-4.03h-0.051c-0.304,1.471-0.685,2.737-1.115,4.056
			l-1.977,5.829h-2.027l-3.701-12.267H89.584z"/>
		<path d="M112.414,532.979v1.647h-6.26v-1.647H112.414z"/>
		<path d="M115.022,532.396c0-1.571-0.051-2.838-0.101-4.004h2.002l0.102,2.104h0.051c0.912-1.495,2.357-2.383,4.359-2.383
			c2.965,0,5.196,2.51,5.196,6.235c0,4.41-2.687,6.589-5.576,6.589c-1.622,0-3.042-0.709-3.776-1.926h-0.051v6.666h-2.205V532.396z
			 M117.227,535.665c0,0.33,0.051,0.634,0.102,0.913c0.405,1.546,1.749,2.61,3.345,2.61c2.357,0,3.726-1.927,3.726-4.74
			c0-2.458-1.292-4.562-3.649-4.562c-1.521,0-2.94,1.09-3.371,2.763c-0.076,0.278-0.152,0.608-0.152,0.912V535.665z"/>
		<path d="M129.438,532.219c0-1.445-0.025-2.687-0.101-3.827h1.951l0.076,2.407h0.102c0.558-1.647,1.901-2.687,3.396-2.687
			c0.253,0,0.431,0.025,0.634,0.076v2.104c-0.228-0.051-0.457-0.076-0.76-0.076c-1.572,0-2.687,1.191-2.991,2.864
			c-0.051,0.304-0.102,0.659-0.102,1.039v6.539h-2.205V532.219z"/>
		<path d="M138.712,534.931c0.05,3.016,1.977,4.258,4.207,4.258c1.597,0,2.56-0.279,3.396-0.634l0.38,1.597
			c-0.786,0.354-2.129,0.785-4.081,0.785c-3.776,0-6.032-2.509-6.032-6.209s2.18-6.615,5.753-6.615c4.004,0,5.069,3.523,5.069,5.779
			c0,0.456-0.05,0.811-0.076,1.039H138.712z M145.251,533.334c0.025-1.42-0.583-3.625-3.092-3.625c-2.256,0-3.244,2.078-3.422,3.625
			H145.251z"/>
		<path d="M149.86,538.377c0.659,0.431,1.825,0.888,2.94,0.888c1.622,0,2.383-0.812,2.383-1.825c0-1.064-0.634-1.647-2.281-2.256
			c-2.205-0.785-3.244-2.002-3.244-3.472c0-1.978,1.597-3.6,4.232-3.6c1.242,0,2.332,0.355,3.016,0.761l-0.558,1.622
			c-0.481-0.305-1.369-0.71-2.509-0.71c-1.318,0-2.053,0.761-2.053,1.673c0,1.014,0.735,1.47,2.332,2.078
			c2.129,0.812,3.219,1.876,3.219,3.7c0,2.154-1.673,3.7-4.587,3.7c-1.343,0-2.585-0.354-3.447-0.861L149.86,538.377z"/>
		<path d="M159.893,538.377c0.659,0.431,1.825,0.888,2.94,0.888c1.622,0,2.383-0.812,2.383-1.825c0-1.064-0.634-1.647-2.281-2.256
			c-2.205-0.785-3.244-2.002-3.244-3.472c0-1.978,1.597-3.6,4.232-3.6c1.242,0,2.332,0.355,3.016,0.761l-0.558,1.622
			c-0.481-0.305-1.369-0.71-2.509-0.71c-1.318,0-2.053,0.761-2.053,1.673c0,1.014,0.735,1.47,2.332,2.078
			c2.129,0.812,3.219,1.876,3.219,3.7c0,2.154-1.673,3.7-4.587,3.7c-1.343,0-2.585-0.354-3.447-0.861L159.893,538.377z"/>
		<path d="M180.496,537.313c0,1.268,0.025,2.383,0.102,3.346h-1.977l-0.126-2.002h-0.051c-0.583,0.988-1.875,2.28-4.055,2.28
			c-1.926,0-4.233-1.064-4.233-5.373v-7.172h2.23v6.792c0,2.332,0.71,3.903,2.737,3.903c1.496,0,2.535-1.039,2.94-2.027
			c0.127-0.33,0.203-0.735,0.203-1.141v-7.527h2.23V537.313z"/>
		<path d="M184.192,532.219c0-1.445-0.025-2.687-0.101-3.827h1.951l0.076,2.407h0.102c0.558-1.647,1.901-2.687,3.396-2.687
			c0.253,0,0.431,0.025,0.634,0.076v2.104c-0.228-0.051-0.457-0.076-0.76-0.076c-1.572,0-2.687,1.191-2.991,2.864
			c-0.051,0.304-0.102,0.659-0.102,1.039v6.539h-2.205V532.219z"/>
		<path d="M193.466,534.931c0.05,3.016,1.977,4.258,4.207,4.258c1.597,0,2.56-0.279,3.396-0.634l0.38,1.597
			c-0.786,0.354-2.129,0.785-4.081,0.785c-3.776,0-6.032-2.509-6.032-6.209s2.18-6.615,5.753-6.615c4.004,0,5.069,3.523,5.069,5.779
			c0,0.456-0.05,0.811-0.076,1.039H193.466z M200.004,533.334c0.025-1.42-0.583-3.625-3.092-3.625c-2.256,0-3.244,2.078-3.422,3.625
			H200.004z"/>
		<path d="M72.104,562.715c-0.583,0.304-1.875,0.734-3.523,0.734c-3.7,0-6.108-2.534-6.108-6.285c0-3.776,2.585-6.514,6.59-6.514
			c1.318,0,2.484,0.33,3.092,0.634l-0.507,1.724c-0.533-0.305-1.369-0.583-2.585-0.583c-2.813,0-4.334,2.078-4.334,4.638
			c0,2.839,1.825,4.588,4.258,4.588c1.268,0,2.104-0.33,2.737-0.608L72.104,562.715z"/>
		<path d="M85.66,556.937c0,4.536-3.143,6.513-6.108,6.513c-3.32,0-5.88-2.433-5.88-6.311c0-4.105,2.687-6.514,6.083-6.514
			C83.277,550.625,85.66,553.185,85.66,556.937z M75.927,557.063c0,2.687,1.546,4.715,3.726,4.715c2.129,0,3.726-2.003,3.726-4.766
			c0-2.078-1.04-4.714-3.675-4.714S75.927,554.731,75.927,557.063z"/>
		<path d="M88.469,554.225c0-1.268-0.025-2.307-0.101-3.32h1.951l0.102,1.977h0.076c0.684-1.166,1.825-2.256,3.852-2.256
			c1.673,0,2.94,1.014,3.473,2.459h0.05c0.38-0.685,0.862-1.217,1.369-1.597c0.735-0.558,1.546-0.862,2.712-0.862
			c1.622,0,4.03,1.064,4.03,5.322v7.224h-2.18v-6.944c0-2.357-0.861-3.776-2.661-3.776c-1.267,0-2.255,0.938-2.636,2.027
			c-0.102,0.305-0.177,0.71-0.177,1.115v7.578h-2.18v-7.35c0-1.952-0.862-3.371-2.56-3.371c-1.394,0-2.408,1.115-2.763,2.23
			c-0.126,0.329-0.177,0.709-0.177,1.09v7.4h-2.18V554.225z"/>
		<path d="M109.6,554.908c0-1.571-0.051-2.838-0.101-4.004h2.002l0.102,2.104h0.051c0.912-1.495,2.357-2.383,4.359-2.383
			c2.965,0,5.196,2.51,5.196,6.235c0,4.41-2.687,6.589-5.576,6.589c-1.622,0-3.042-0.709-3.776-1.926h-0.051v6.666H109.6V554.908z
			 M111.805,558.178c0,0.33,0.051,0.634,0.102,0.913c0.405,1.546,1.749,2.61,3.345,2.61c2.357,0,3.726-1.927,3.726-4.74
			c0-2.458-1.292-4.562-3.649-4.562c-1.521,0-2.94,1.09-3.371,2.763c-0.076,0.278-0.152,0.608-0.152,0.912V558.178z"/>
		<path d="M124.017,554.731c0-1.445-0.025-2.687-0.101-3.827h1.951l0.076,2.407h0.102c0.558-1.647,1.901-2.687,3.396-2.687
			c0.253,0,0.431,0.025,0.634,0.076v2.104c-0.228-0.051-0.457-0.076-0.76-0.076c-1.572,0-2.687,1.191-2.991,2.864
			c-0.051,0.304-0.102,0.659-0.102,1.039v6.539h-2.205V554.731z"/>
		<path d="M133.291,557.443c0.05,3.016,1.977,4.258,4.207,4.258c1.597,0,2.56-0.279,3.396-0.634l0.38,1.597
			c-0.786,0.354-2.129,0.785-4.081,0.785c-3.776,0-6.032-2.509-6.032-6.209s2.18-6.615,5.753-6.615c4.004,0,5.069,3.523,5.069,5.779
			c0,0.456-0.05,0.811-0.076,1.039H133.291z M139.829,555.847c0.025-1.42-0.583-3.625-3.092-3.625c-2.256,0-3.244,2.078-3.422,3.625
			H139.829z"/>
		<path d="M144.438,560.89c0.659,0.431,1.825,0.888,2.94,0.888c1.622,0,2.383-0.812,2.383-1.825c0-1.064-0.634-1.647-2.281-2.256
			c-2.205-0.785-3.244-2.002-3.244-3.472c0-1.978,1.597-3.6,4.232-3.6c1.242,0,2.332,0.355,3.016,0.761l-0.558,1.622
			c-0.481-0.305-1.369-0.71-2.509-0.71c-1.318,0-2.053,0.761-2.053,1.673c0,1.014,0.735,1.47,2.332,2.078
			c2.129,0.812,3.219,1.876,3.219,3.7c0,2.154-1.673,3.7-4.587,3.7c-1.343,0-2.585-0.354-3.447-0.861L144.438,560.89z"/>
		<path d="M154.471,560.89c0.659,0.431,1.825,0.888,2.94,0.888c1.622,0,2.383-0.812,2.383-1.825c0-1.064-0.634-1.647-2.281-2.256
			c-2.205-0.785-3.244-2.002-3.244-3.472c0-1.978,1.597-3.6,4.232-3.6c1.242,0,2.332,0.355,3.016,0.761l-0.558,1.622
			c-0.481-0.305-1.369-0.71-2.509-0.71c-1.318,0-2.053,0.761-2.053,1.673c0,1.014,0.735,1.47,2.332,2.078
			c2.129,0.812,3.219,1.876,3.219,3.7c0,2.154-1.673,3.7-4.587,3.7c-1.343,0-2.585-0.354-3.447-0.861L154.471,560.89z"/>
		<path d="M175.91,556.937c0,4.536-3.143,6.513-6.108,6.513c-3.32,0-5.88-2.433-5.88-6.311c0-4.105,2.687-6.514,6.083-6.514
			C173.528,550.625,175.91,553.185,175.91,556.937z M166.178,557.063c0,2.687,1.546,4.715,3.726,4.715
			c2.129,0,3.726-2.003,3.726-4.766c0-2.078-1.04-4.714-3.675-4.714S166.178,554.731,166.178,557.063z"/>
		<path d="M178.719,554.731c0-1.445-0.025-2.687-0.101-3.827h1.951l0.076,2.407h0.102c0.558-1.647,1.901-2.687,3.396-2.687
			c0.253,0,0.431,0.025,0.634,0.076v2.104c-0.228-0.051-0.457-0.076-0.76-0.076c-1.572,0-2.687,1.191-2.991,2.864
			c-0.051,0.304-0.102,0.659-0.102,1.039v6.539h-2.205V554.731z"/>
	</g>
	<g>
		<path d="M226.22,465.852h2.205v15.231h7.299v1.851h-9.504V465.852z"/>
		<path d="M248.849,476.699c0,4.536-3.143,6.513-6.108,6.513c-3.32,0-5.88-2.433-5.88-6.311c0-4.105,2.687-6.514,6.083-6.514
			C246.467,470.388,248.849,472.947,248.849,476.699z M239.117,476.825c0,2.687,1.546,4.715,3.726,4.715
			c2.129,0,3.726-2.003,3.726-4.766c0-2.078-1.04-4.714-3.675-4.714S239.117,474.494,239.117,476.825z"/>
		<path d="M252.368,470.667l1.622,6.234c0.355,1.369,0.684,2.636,0.912,3.903h0.076c0.279-1.242,0.685-2.56,1.09-3.903l2.002-6.234
			h1.875l1.901,6.133c0.456,1.471,0.811,2.763,1.09,4.005h0.076c0.203-1.242,0.533-2.534,0.938-3.979l1.749-6.158h2.205
			l-3.954,12.267h-2.027l-1.876-5.854c-0.431-1.369-0.786-2.585-1.089-4.03h-0.051c-0.304,1.471-0.685,2.737-1.115,4.056
			l-1.977,5.829h-2.027l-3.701-12.267H252.368z"/>
		<path d="M275.198,475.254v1.647h-6.26v-1.647H275.198z"/>
		<path d="M277.806,474.671c0-1.571-0.051-2.838-0.101-4.004h2.002l0.102,2.104h0.051c0.912-1.495,2.357-2.383,4.359-2.383
			c2.965,0,5.196,2.51,5.196,6.235c0,4.41-2.687,6.589-5.576,6.589c-1.622,0-3.042-0.709-3.776-1.926h-0.051v6.666h-2.205V474.671z
			 M280.011,477.94c0,0.33,0.051,0.634,0.102,0.913c0.405,1.546,1.749,2.61,3.345,2.61c2.357,0,3.726-1.927,3.726-4.74
			c0-2.458-1.292-4.562-3.649-4.562c-1.521,0-2.94,1.09-3.371,2.763c-0.076,0.278-0.152,0.608-0.152,0.912V477.94z"/>
		<path d="M292.223,474.494c0-1.445-0.025-2.687-0.101-3.827h1.951l0.076,2.407h0.102c0.558-1.647,1.901-2.687,3.396-2.687
			c0.253,0,0.431,0.025,0.634,0.076v2.104c-0.228-0.051-0.457-0.076-0.76-0.076c-1.572,0-2.687,1.191-2.991,2.864
			c-0.051,0.304-0.102,0.659-0.102,1.039v6.539h-2.205V474.494z"/>
		<path d="M301.497,477.206c0.05,3.016,1.977,4.258,4.207,4.258c1.597,0,2.56-0.279,3.396-0.634l0.38,1.597
			c-0.786,0.354-2.129,0.785-4.081,0.785c-3.776,0-6.032-2.509-6.032-6.209s2.18-6.615,5.753-6.615c4.004,0,5.069,3.523,5.069,5.779
			c0,0.456-0.05,0.811-0.076,1.039H301.497z M308.035,475.609c0.025-1.42-0.583-3.625-3.092-3.625c-2.256,0-3.244,2.078-3.422,3.625
			H308.035z"/>
		<path d="M312.644,480.652c0.659,0.431,1.825,0.888,2.94,0.888c1.622,0,2.383-0.812,2.383-1.825c0-1.064-0.634-1.647-2.281-2.256
			c-2.205-0.785-3.244-2.002-3.244-3.472c0-1.978,1.597-3.6,4.232-3.6c1.242,0,2.332,0.355,3.016,0.761l-0.558,1.622
			c-0.481-0.305-1.369-0.71-2.509-0.71c-1.318,0-2.053,0.761-2.053,1.673c0,1.014,0.735,1.47,2.332,2.078
			c2.129,0.812,3.219,1.876,3.219,3.7c0,2.154-1.673,3.7-4.587,3.7c-1.343,0-2.585-0.354-3.447-0.861L312.644,480.652z"/>
		<path d="M322.677,480.652c0.659,0.431,1.825,0.888,2.94,0.888c1.622,0,2.383-0.812,2.383-1.825c0-1.064-0.634-1.647-2.281-2.256
			c-2.205-0.785-3.244-2.002-3.244-3.472c0-1.978,1.597-3.6,4.232-3.6c1.242,0,2.332,0.355,3.016,0.761l-0.558,1.622
			c-0.481-0.305-1.369-0.71-2.509-0.71c-1.318,0-2.053,0.761-2.053,1.673c0,1.014,0.735,1.47,2.332,2.078
			c2.129,0.812,3.219,1.876,3.219,3.7c0,2.154-1.673,3.7-4.587,3.7c-1.343,0-2.585-0.354-3.447-0.861L322.677,480.652z"/>
		<path d="M343.28,479.588c0,1.268,0.025,2.383,0.102,3.346h-1.977l-0.126-2.002h-0.051c-0.583,0.988-1.875,2.28-4.055,2.28
			c-1.926,0-4.233-1.064-4.233-5.373v-7.172h2.23v6.792c0,2.332,0.71,3.903,2.737,3.903c1.496,0,2.535-1.039,2.94-2.027
			c0.127-0.33,0.203-0.735,0.203-1.141v-7.527h2.23V479.588z"/>
		<path d="M346.976,474.494c0-1.445-0.025-2.687-0.101-3.827h1.951l0.076,2.407h0.102c0.558-1.647,1.901-2.687,3.396-2.687
			c0.253,0,0.431,0.025,0.634,0.076v2.104c-0.228-0.051-0.457-0.076-0.76-0.076c-1.572,0-2.687,1.191-2.991,2.864
			c-0.051,0.304-0.102,0.659-0.102,1.039v6.539h-2.205V474.494z"/>
		<path d="M356.25,477.206c0.05,3.016,1.977,4.258,4.207,4.258c1.597,0,2.56-0.279,3.396-0.634l0.38,1.597
			c-0.786,0.354-2.129,0.785-4.081,0.785c-3.776,0-6.032-2.509-6.032-6.209s2.18-6.615,5.753-6.615c4.004,0,5.069,3.523,5.069,5.779
			c0,0.456-0.05,0.811-0.076,1.039H356.25z M362.789,475.609c0.025-1.42-0.583-3.625-3.092-3.625c-2.256,0-3.244,2.078-3.422,3.625
			H362.789z"/>
		<path d="M225.839,503.165c0.659,0.431,1.825,0.888,2.94,0.888c1.622,0,2.383-0.812,2.383-1.825c0-1.064-0.634-1.647-2.281-2.256
			c-2.205-0.785-3.244-2.002-3.244-3.472c0-1.978,1.597-3.6,4.232-3.6c1.242,0,2.332,0.355,3.016,0.761l-0.558,1.622
			c-0.481-0.305-1.369-0.71-2.509-0.71c-1.318,0-2.053,0.761-2.053,1.673c0,1.014,0.735,1.47,2.332,2.078
			c2.129,0.812,3.219,1.876,3.219,3.7c0,2.154-1.673,3.7-4.587,3.7c-1.343,0-2.585-0.354-3.447-0.861L225.839,503.165z"/>
		<path d="M236.177,487.451h2.23v7.654h0.051c0.354-0.634,0.912-1.191,1.597-1.571c0.659-0.38,1.444-0.634,2.281-0.634
			c1.647,0,4.284,1.014,4.284,5.246v7.3h-2.23V498.4c0-1.977-0.735-3.649-2.839-3.649c-1.444,0-2.585,1.014-2.991,2.23
			c-0.126,0.304-0.152,0.633-0.152,1.064v7.4h-2.23V487.451z"/>
		<path d="M258.856,502.506c0,1.064,0.051,2.104,0.203,2.94h-2.028l-0.177-1.546h-0.076c-0.685,0.963-2.002,1.824-3.751,1.824
			c-2.484,0-3.751-1.748-3.751-3.522c0-2.966,2.636-4.588,7.375-4.563v-0.253c0-1.014-0.279-2.839-2.788-2.839
			c-1.141,0-2.332,0.354-3.193,0.912l-0.507-1.47c1.014-0.659,2.484-1.09,4.03-1.09c3.751,0,4.663,2.56,4.663,5.019V502.506z
			 M256.702,499.187c-2.433-0.051-5.196,0.38-5.196,2.762c0,1.445,0.963,2.13,2.104,2.13c1.597,0,2.61-1.015,2.965-2.054
			c0.076-0.228,0.126-0.481,0.126-0.709V499.187z"/>
		<path d="M262.68,505.446v-10.568h-1.723v-1.698h1.723v-0.583c0-1.724,0.38-3.295,1.419-4.283c0.836-0.812,1.952-1.141,2.991-1.141
			c0.786,0,1.47,0.177,1.901,0.354l-0.304,1.724c-0.33-0.152-0.786-0.279-1.419-0.279c-1.901,0-2.382,1.673-2.382,3.549v0.659h2.965
			v1.698h-2.965v10.568H262.68z"/>
		<path d="M272.814,490.239v2.94h3.193v1.698h-3.193v6.614c0,1.521,0.431,2.383,1.673,2.383c0.608,0,0.963-0.051,1.292-0.152
			l0.102,1.673c-0.431,0.178-1.115,0.329-1.977,0.329c-1.039,0-1.875-0.354-2.408-0.963c-0.634-0.659-0.862-1.748-0.862-3.193v-6.69
			h-1.901v-1.698h1.901v-2.256L272.814,490.239z"/>
	</g>
	<g>
		<path d="M346.679,543.565c-0.811,0.405-2.433,0.836-4.512,0.836c-4.815,0-8.439-3.066-8.439-8.667
			c0-5.349,3.624-8.973,8.921-8.973c2.129,0,3.472,0.456,4.055,0.761l-0.532,1.799c-0.836-0.405-2.028-0.709-3.447-0.709
			c-4.004,0-6.666,2.56-6.666,7.046c0,4.182,2.408,6.868,6.564,6.868c1.343,0,2.712-0.279,3.599-0.71L346.679,543.565z"/>
		<path d="M360.184,537.889c0,4.536-3.143,6.513-6.108,6.513c-3.32,0-5.88-2.433-5.88-6.311c0-4.105,2.687-6.514,6.083-6.514
			C357.801,531.577,360.184,534.137,360.184,537.889z M350.451,538.015c0,2.687,1.546,4.715,3.726,4.715
			c2.129,0,3.726-2.003,3.726-4.766c0-2.078-1.04-4.714-3.675-4.714S350.451,535.684,350.451,538.015z"/>
		<path d="M362.993,535.177c0-1.268-0.025-2.307-0.101-3.32h1.951l0.102,1.977h0.076c0.684-1.166,1.825-2.256,3.852-2.256
			c1.673,0,2.94,1.014,3.473,2.459h0.05c0.38-0.685,0.862-1.217,1.369-1.597c0.735-0.558,1.546-0.862,2.712-0.862
			c1.622,0,4.03,1.064,4.03,5.322v7.224h-2.18v-6.944c0-2.357-0.861-3.776-2.661-3.776c-1.267,0-2.255,0.938-2.636,2.027
			c-0.102,0.305-0.177,0.71-0.177,1.115v7.578h-2.18v-7.35c0-1.952-0.862-3.371-2.56-3.371c-1.394,0-2.408,1.115-2.763,2.23
			c-0.126,0.329-0.177,0.709-0.177,1.09v7.4h-2.18V535.177z"/>
		<path d="M384.124,526.128h2.205v7.705h0.051c0.786-1.368,2.205-2.256,4.182-2.256c3.042,0,5.196,2.535,5.17,6.261
			c0,4.385-2.763,6.563-5.5,6.563c-1.774,0-3.194-0.684-4.106-2.306h-0.076l-0.102,2.027h-1.926c0.05-0.836,0.101-2.078,0.101-3.168
			V526.128z M386.329,539.206c0,0.279,0.051,0.558,0.102,0.812c0.431,1.546,1.723,2.61,3.345,2.61c2.332,0,3.726-1.901,3.726-4.715
			c0-2.458-1.267-4.562-3.649-4.562c-1.521,0-2.94,1.039-3.396,2.737c-0.051,0.253-0.127,0.558-0.127,0.912V539.206z"/>
		<path d="M408.805,540.777c0,1.268,0.025,2.383,0.102,3.346h-1.977l-0.126-2.002h-0.051c-0.583,0.988-1.875,2.28-4.055,2.28
			c-1.926,0-4.233-1.064-4.233-5.373v-7.172h2.23v6.792c0,2.332,0.71,3.903,2.737,3.903c1.496,0,2.535-1.039,2.94-2.027
			c0.127-0.33,0.203-0.735,0.203-1.141v-7.527h2.23V540.777z"/>
		<path d="M412.197,541.842c0.659,0.431,1.825,0.888,2.94,0.888c1.622,0,2.383-0.812,2.383-1.825c0-1.064-0.634-1.647-2.281-2.256
			c-2.205-0.785-3.244-2.002-3.244-3.472c0-1.978,1.597-3.6,4.232-3.6c1.242,0,2.332,0.355,3.016,0.761l-0.558,1.622
			c-0.481-0.305-1.369-0.71-2.509-0.71c-1.318,0-2.053,0.761-2.053,1.673c0,1.014,0.735,1.47,2.332,2.078
			c2.129,0.812,3.219,1.876,3.219,3.7c0,2.154-1.673,3.7-4.587,3.7c-1.343,0-2.585-0.354-3.447-0.861L412.197,541.842z"/>
		<path d="M425.221,528.916v2.94h3.193v1.698h-3.193v6.614c0,1.521,0.431,2.383,1.673,2.383c0.608,0,0.963-0.051,1.292-0.152
			l0.102,1.673c-0.431,0.178-1.115,0.329-1.977,0.329c-1.039,0-1.875-0.354-2.408-0.963c-0.634-0.659-0.862-1.749-0.862-3.193v-6.69
			h-1.901v-1.698h1.901v-2.256L425.221,528.916z"/>
		<path d="M433.405,528.409c0.025,0.761-0.532,1.369-1.419,1.369c-0.786,0-1.343-0.608-1.343-1.369c0-0.785,0.583-1.394,1.394-1.394
			C432.873,527.016,433.405,527.624,433.405,528.409z M430.921,544.123v-12.267h2.23v12.267H430.921z"/>
		<path d="M447.951,537.889c0,4.536-3.144,6.513-6.108,6.513c-3.32,0-5.88-2.433-5.88-6.311c0-4.105,2.687-6.514,6.082-6.514
			C445.568,531.577,447.951,534.137,447.951,537.889z M438.219,538.015c0,2.687,1.546,4.715,3.726,4.715
			c2.129,0,3.726-2.003,3.726-4.766c0-2.078-1.039-4.714-3.675-4.714C439.358,533.25,438.219,535.684,438.219,538.015z"/>
		<path d="M450.761,535.177c0-1.268-0.025-2.307-0.102-3.32h1.977l0.127,2.027h0.051c0.608-1.166,2.027-2.307,4.055-2.307
			c1.698,0,4.334,1.014,4.334,5.222v7.324h-2.23v-7.071c0-1.977-0.734-3.624-2.838-3.624c-1.471,0-2.611,1.039-2.991,2.281
			c-0.102,0.278-0.152,0.658-0.152,1.039v7.375h-2.229V535.177z"/>
		<path d="M343.41,566.18c-0.583,0.304-1.875,0.734-3.523,0.734c-3.7,0-6.108-2.534-6.108-6.285c0-3.776,2.585-6.514,6.59-6.514
			c1.318,0,2.484,0.33,3.092,0.634l-0.507,1.724c-0.532-0.305-1.368-0.583-2.585-0.583c-2.813,0-4.334,2.078-4.334,4.638
			c0,2.839,1.825,4.588,4.258,4.588c1.268,0,2.104-0.33,2.737-0.608L343.41,566.18z"/>
		<path d="M346.017,548.641h2.23v7.654h0.051c0.354-0.634,0.912-1.191,1.597-1.571c0.659-0.38,1.444-0.634,2.281-0.634
			c1.647,0,4.284,1.014,4.284,5.246v7.3h-2.23v-7.046c0-1.977-0.735-3.649-2.839-3.649c-1.444,0-2.585,1.014-2.991,2.23
			c-0.126,0.304-0.152,0.633-0.152,1.064v7.4h-2.23V548.641z"/>
		<path d="M368.696,563.695c0,1.064,0.051,2.104,0.203,2.94h-2.028l-0.177-1.546h-0.076c-0.684,0.963-2.002,1.824-3.751,1.824
			c-2.484,0-3.751-1.748-3.751-3.522c0-2.966,2.636-4.588,7.375-4.563v-0.253c0-1.014-0.279-2.839-2.788-2.839
			c-1.141,0-2.332,0.354-3.193,0.912l-0.507-1.47c1.014-0.659,2.484-1.09,4.03-1.09c3.751,0,4.663,2.56,4.663,5.019V563.695z
			 M366.542,560.376c-2.433-0.051-5.196,0.38-5.196,2.762c0,1.445,0.963,2.13,2.104,2.13c1.597,0,2.61-1.015,2.965-2.054
			c0.076-0.228,0.126-0.481,0.126-0.709V560.376z"/>
		<path d="M372.291,557.689c0-1.268-0.025-2.307-0.101-3.32h1.951l0.102,1.977h0.076c0.684-1.166,1.825-2.256,3.852-2.256
			c1.673,0,2.94,1.014,3.473,2.459h0.05c0.38-0.685,0.862-1.217,1.369-1.597c0.735-0.558,1.546-0.862,2.712-0.862
			c1.622,0,4.03,1.064,4.03,5.322v7.224h-2.18v-6.944c0-2.357-0.861-3.776-2.661-3.776c-1.267,0-2.255,0.938-2.636,2.027
			c-0.102,0.305-0.177,0.71-0.177,1.115v7.578h-2.18v-7.35c0-1.952-0.862-3.371-2.56-3.371c-1.394,0-2.408,1.115-2.763,2.23
			c-0.126,0.329-0.177,0.709-0.177,1.09v7.4h-2.18V557.689z"/>
		<path d="M393.422,548.641h2.205v7.705h0.051c0.786-1.368,2.205-2.256,4.182-2.256c3.042,0,5.196,2.535,5.17,6.261
			c0,4.385-2.763,6.563-5.5,6.563c-1.774,0-3.194-0.684-4.106-2.306h-0.076l-0.102,2.027h-1.926c0.05-0.836,0.101-2.078,0.101-3.168
			V548.641z M395.627,561.719c0,0.279,0.051,0.558,0.102,0.812c0.431,1.546,1.723,2.61,3.345,2.61c2.332,0,3.726-1.901,3.726-4.715
			c0-2.458-1.267-4.562-3.649-4.562c-1.521,0-2.94,1.039-3.396,2.737c-0.051,0.253-0.127,0.558-0.127,0.912V561.719z"/>
		<path d="M409.081,560.908c0.05,3.016,1.977,4.258,4.207,4.258c1.597,0,2.56-0.279,3.396-0.634l0.38,1.597
			c-0.786,0.354-2.129,0.785-4.081,0.785c-3.776,0-6.032-2.509-6.032-6.209s2.18-6.615,5.753-6.615c4.004,0,5.069,3.523,5.069,5.779
			c0,0.456-0.05,0.811-0.076,1.039H409.081z M415.62,559.312c0.025-1.42-0.583-3.625-3.092-3.625c-2.256,0-3.244,2.078-3.422,3.625
			H415.62z"/>
		<path d="M420.533,558.196c0-1.445-0.025-2.687-0.101-3.827h1.951l0.076,2.407h0.102c0.558-1.647,1.901-2.687,3.396-2.687
			c0.253,0,0.431,0.025,0.634,0.076v2.104c-0.228-0.051-0.457-0.076-0.76-0.076c-1.572,0-2.687,1.191-2.991,2.864
			c-0.051,0.304-0.102,0.659-0.102,1.039v6.539h-2.205V558.196z"/>
	</g>
	<g>
		<path d="M482.516,528.196h2.205v15.231h7.3v1.851h-9.505V528.196z"/>
		<path d="M505.146,539.044c0,4.536-3.143,6.513-6.108,6.513c-3.32,0-5.88-2.433-5.88-6.311c0-4.105,2.687-6.514,6.083-6.514
			C502.763,532.732,505.146,535.292,505.146,539.044z M495.413,539.17c0,2.687,1.546,4.715,3.726,4.715
			c2.129,0,3.726-2.003,3.726-4.766c0-2.078-1.039-4.714-3.675-4.714S495.413,536.839,495.413,539.17z"/>
		<path d="M508.664,533.012l1.622,6.234c0.354,1.369,0.685,2.636,0.912,3.903h0.076c0.279-1.242,0.685-2.56,1.09-3.903l2.002-6.234
			h1.876l1.9,6.133c0.457,1.471,0.812,2.763,1.09,4.005h0.076c0.203-1.242,0.532-2.534,0.938-3.979l1.748-6.158h2.205l-3.953,12.267
			h-2.028l-1.875-5.854c-0.431-1.369-0.786-2.585-1.09-4.03h-0.051c-0.305,1.471-0.685,2.737-1.115,4.056l-1.977,5.829h-2.028
			l-3.7-12.267H508.664z"/>
		<path d="M531.494,537.599v1.647h-6.26v-1.647H531.494z"/>
		<path d="M534.103,537.016c0-1.571-0.051-2.838-0.102-4.004h2.002l0.102,2.104h0.051c0.912-1.495,2.356-2.383,4.359-2.383
			c2.965,0,5.195,2.51,5.195,6.235c0,4.41-2.687,6.589-5.576,6.589c-1.622,0-3.041-0.709-3.776-1.926h-0.051v6.666h-2.204V537.016z
			 M536.307,540.285c0,0.33,0.051,0.634,0.102,0.913c0.406,1.546,1.749,2.61,3.346,2.61c2.357,0,3.726-1.927,3.726-4.74
			c0-2.458-1.292-4.562-3.649-4.562c-1.521,0-2.94,1.09-3.371,2.763c-0.076,0.278-0.152,0.608-0.152,0.912V540.285z"/>
		<path d="M548.52,536.839c0-1.445-0.025-2.687-0.102-3.827h1.951l0.076,2.407h0.102c0.558-1.647,1.9-2.687,3.396-2.687
			c0.253,0,0.431,0.025,0.633,0.076v2.104c-0.228-0.051-0.456-0.076-0.76-0.076c-1.571,0-2.687,1.191-2.991,2.864
			c-0.051,0.304-0.101,0.659-0.101,1.039v6.539h-2.205V536.839z"/>
		<path d="M557.793,539.551c0.051,3.016,1.978,4.258,4.207,4.258c1.598,0,2.561-0.279,3.396-0.634l0.381,1.597
			c-0.786,0.354-2.13,0.785-4.081,0.785c-3.776,0-6.032-2.509-6.032-6.209s2.18-6.615,5.754-6.615c4.004,0,5.068,3.523,5.068,5.779
			c0,0.456-0.051,0.811-0.076,1.039H557.793z M564.332,537.954c0.025-1.42-0.583-3.625-3.092-3.625
			c-2.256,0-3.244,2.078-3.422,3.625H564.332z"/>
		<path d="M568.94,542.997c0.659,0.431,1.825,0.888,2.94,0.888c1.622,0,2.382-0.812,2.382-1.825c0-1.064-0.634-1.647-2.28-2.256
			c-2.205-0.785-3.244-2.002-3.244-3.472c0-1.978,1.597-3.6,4.232-3.6c1.241,0,2.331,0.355,3.016,0.761l-0.558,1.622
			c-0.481-0.305-1.368-0.71-2.509-0.71c-1.318,0-2.053,0.761-2.053,1.673c0,1.014,0.734,1.47,2.331,2.078
			c2.129,0.812,3.219,1.876,3.219,3.7c0,2.154-1.673,3.7-4.587,3.7c-1.344,0-2.585-0.354-3.447-0.861L568.94,542.997z"/>
		<path d="M578.974,542.997c0.659,0.431,1.825,0.888,2.94,0.888c1.622,0,2.382-0.812,2.382-1.825c0-1.064-0.634-1.647-2.28-2.256
			c-2.205-0.785-3.244-2.002-3.244-3.472c0-1.978,1.597-3.6,4.232-3.6c1.241,0,2.331,0.355,3.016,0.761l-0.558,1.622
			c-0.481-0.305-1.368-0.71-2.509-0.71c-1.318,0-2.053,0.761-2.053,1.673c0,1.014,0.734,1.47,2.331,2.078
			c2.129,0.812,3.219,1.876,3.219,3.7c0,2.154-1.673,3.7-4.587,3.7c-1.344,0-2.585-0.354-3.447-0.861L578.974,542.997z"/>
		<path d="M599.576,541.933c0,1.268,0.025,2.383,0.101,3.346H597.7l-0.127-2.002h-0.051c-0.583,0.988-1.875,2.28-4.055,2.28
			c-1.927,0-4.232-1.064-4.232-5.373v-7.172h2.23v6.792c0,2.332,0.709,3.903,2.737,3.903c1.495,0,2.534-1.039,2.939-2.027
			c0.127-0.33,0.203-0.735,0.203-1.141v-7.527h2.23V541.933z"/>
		<path d="M603.272,536.839c0-1.445-0.025-2.687-0.102-3.827h1.951l0.076,2.407h0.102c0.558-1.647,1.9-2.687,3.396-2.687
			c0.253,0,0.431,0.025,0.633,0.076v2.104c-0.228-0.051-0.456-0.076-0.76-0.076c-1.571,0-2.687,1.191-2.991,2.864
			c-0.051,0.304-0.102,0.659-0.102,1.039v6.539h-2.204V536.839z"/>
		<path d="M612.546,539.551c0.051,3.016,1.978,4.258,4.208,4.258c1.597,0,2.56-0.279,3.396-0.634l0.381,1.597
			c-0.786,0.354-2.13,0.785-4.081,0.785c-3.776,0-6.032-2.509-6.032-6.209s2.18-6.615,5.754-6.615c4.004,0,5.068,3.523,5.068,5.779
			c0,0.456-0.051,0.811-0.076,1.039H612.546z M619.085,537.954c0.025-1.42-0.583-3.625-3.092-3.625
			c-2.256,0-3.244,2.078-3.422,3.625H619.085z"/>
		<path d="M485.127,552.584v2.94h3.193v1.698h-3.193v6.614c0,1.521,0.431,2.383,1.673,2.383c0.607,0,0.963-0.051,1.292-0.152
			l0.102,1.673c-0.431,0.178-1.115,0.329-1.977,0.329c-1.039,0-1.876-0.354-2.408-0.963c-0.634-0.659-0.861-1.749-0.861-3.193v-6.69
			h-1.901v-1.698h1.901v-2.256L485.127,552.584z"/>
		<path d="M501.092,564.445c0,1.268,0.025,2.383,0.101,3.346h-1.977l-0.127-2.002h-0.051c-0.583,0.988-1.875,2.28-4.055,2.28
			c-1.927,0-4.232-1.064-4.232-5.373v-7.172h2.23v6.792c0,2.332,0.709,3.903,2.737,3.903c1.495,0,2.534-1.039,2.939-2.027
			c0.127-0.33,0.203-0.735,0.203-1.141v-7.527h2.23V564.445z"/>
		<path d="M504.788,559.352c0-1.445-0.025-2.687-0.102-3.827h1.951l0.076,2.407h0.102c0.558-1.647,1.9-2.687,3.396-2.687
			c0.253,0,0.431,0.025,0.633,0.076v2.104c-0.228-0.051-0.456-0.076-0.76-0.076c-1.571,0-2.687,1.191-2.991,2.864
			c-0.051,0.304-0.102,0.659-0.102,1.039v6.539h-2.204V559.352z"/>
		<path d="M513.174,549.796h2.205v7.705h0.05c0.786-1.368,2.205-2.256,4.183-2.256c3.041,0,5.195,2.535,5.17,6.261
			c0,4.385-2.763,6.563-5.5,6.563c-1.773,0-3.193-0.684-4.105-2.306H515.1l-0.102,2.027h-1.926c0.051-0.836,0.102-2.078,0.102-3.168
			V549.796z M515.379,562.874c0,0.279,0.05,0.558,0.101,0.812c0.432,1.546,1.724,2.61,3.346,2.61c2.332,0,3.726-1.901,3.726-4.715
			c0-2.458-1.267-4.562-3.649-4.562c-1.521,0-2.94,1.039-3.396,2.737c-0.051,0.253-0.126,0.558-0.126,0.912V562.874z"/>
		<path d="M530.074,552.077c0.025,0.761-0.532,1.369-1.419,1.369c-0.786,0-1.344-0.608-1.344-1.369c0-0.785,0.583-1.394,1.395-1.394
			C529.542,550.684,530.074,551.292,530.074,552.077z M527.591,567.791v-12.267h2.229v12.267H527.591z"/>
		<path d="M533.52,558.845c0-1.268-0.025-2.307-0.102-3.32h1.977l0.127,2.027h0.051c0.608-1.166,2.027-2.307,4.055-2.307
			c1.698,0,4.334,1.014,4.334,5.222v7.324h-2.23v-7.071c0-1.977-0.734-3.624-2.838-3.624c-1.471,0-2.611,1.039-2.991,2.281
			c-0.102,0.278-0.152,0.658-0.152,1.039v7.375h-2.229V558.845z"/>
		<path d="M548.822,562.063c0.051,3.016,1.978,4.258,4.207,4.258c1.598,0,2.561-0.279,3.396-0.634l0.381,1.597
			c-0.786,0.354-2.13,0.785-4.081,0.785c-3.776,0-6.032-2.509-6.032-6.209s2.18-6.615,5.754-6.615c4.004,0,5.068,3.523,5.068,5.779
			c0,0.456-0.051,0.811-0.076,1.039H548.822z M555.361,560.467c0.025-1.42-0.583-3.625-3.092-3.625
			c-2.256,0-3.244,2.078-3.422,3.625H555.361z"/>
	</g>
	<g>
		<path d="M646.455,540.662V523.58h2.408l5.475,8.643c1.268,2.002,2.256,3.802,3.066,5.55l0.051-0.025
			c-0.203-2.28-0.253-4.359-0.253-7.021v-7.146h2.078v17.082h-2.23l-5.424-8.668c-1.191-1.9-2.332-3.853-3.193-5.702l-0.076,0.025
			c0.127,2.154,0.178,4.207,0.178,7.046v7.299H646.455z"/>
		<path d="M674.152,534.428c0,4.536-3.143,6.513-6.108,6.513c-3.32,0-5.88-2.433-5.88-6.311c0-4.105,2.687-6.514,6.083-6.514
			C671.77,528.116,674.152,530.676,674.152,534.428z M664.42,534.554c0,2.687,1.546,4.715,3.726,4.715
			c2.129,0,3.726-2.003,3.726-4.766c0-2.078-1.039-4.714-3.675-4.714S664.42,532.223,664.42,534.554z"/>
		<path d="M675.39,539.369l5.551-7.223c0.532-0.659,1.039-1.242,1.597-1.901v-0.051h-6.641v-1.799h9.353l-0.025,1.394l-5.475,7.122
			c-0.507,0.685-1.014,1.293-1.571,1.926v0.051h7.173v1.774h-9.961V539.369z"/>
		<path d="M686.234,539.369l5.551-7.223c0.532-0.659,1.039-1.242,1.597-1.901v-0.051h-6.641v-1.799h9.353l-0.025,1.394l-5.475,7.122
			c-0.507,0.685-1.014,1.293-1.571,1.926v0.051h7.173v1.774h-9.961V539.369z"/>
		<path d="M698.473,522.667h2.229v17.995h-2.229V522.667z"/>
		<path d="M705.693,534.935c0.051,3.016,1.978,4.258,4.207,4.258c1.598,0,2.561-0.279,3.396-0.634l0.381,1.597
			c-0.786,0.354-2.13,0.785-4.081,0.785c-3.776,0-6.032-2.509-6.032-6.209s2.18-6.615,5.754-6.615c4.004,0,5.068,3.523,5.068,5.779
			c0,0.456-0.051,0.811-0.076,1.039H705.693z M712.232,533.338c0.025-1.42-0.583-3.625-3.092-3.625
			c-2.256,0-3.244,2.078-3.422,3.625H712.232z"/>
	</g>
</g>
</svg>
